<mxfile host="65bd71144e">
    <diagram name="Pagina-1" id="cASJgcRA1GZAY-W6Zr8W">
        <mxGraphModel dx="5297" dy="3943" grid="1" gridSize="10" guides="1" tooltips="1" connect="1" arrows="1" fold="1" page="1" pageScale="1" pageWidth="1169" pageHeight="827" background="none" math="0" shadow="0">
            <root>
                <mxCell id="0"/>
                <mxCell id="1" parent="0"/>
                <mxCell id="iPYovIgnLKDDGat7eZfa-45" style="edgeStyle=orthogonalEdgeStyle;rounded=1;orthogonalLoop=1;jettySize=auto;html=1;entryX=0.5;entryY=1;entryDx=0;entryDy=0;" parent="1" source="iPYovIgnLKDDGat7eZfa-1" target="iPYovIgnLKDDGat7eZfa-22" edge="1">
                    <mxGeometry relative="1" as="geometry"/>
                </mxCell>
                <mxCell id="iPYovIgnLKDDGat7eZfa-1" value="&lt;div&gt;Tecnico&lt;/div&gt;" style="rounded=1;whiteSpace=wrap;html=1;fillColor=#6a00ff;strokeColor=#3700CC;fontColor=#ffffff;" parent="1" vertex="1">
                    <mxGeometry x="450" y="-400" width="120" height="60" as="geometry"/>
                </mxCell>
                <mxCell id="iPYovIgnLKDDGat7eZfa-47" style="edgeStyle=orthogonalEdgeStyle;rounded=1;orthogonalLoop=1;jettySize=auto;html=1;entryX=0.5;entryY=1;entryDx=0;entryDy=0;" parent="1" source="iPYovIgnLKDDGat7eZfa-3" target="iPYovIgnLKDDGat7eZfa-1" edge="1">
                    <mxGeometry relative="1" as="geometry"/>
                </mxCell>
                <mxCell id="iPYovIgnLKDDGat7eZfa-3" value="Tecnico del Suono" style="rounded=1;whiteSpace=wrap;html=1;fillColor=#6a00ff;strokeColor=#3700CC;fontColor=#ffffff;" parent="1" vertex="1">
                    <mxGeometry x="350" y="-190" width="120" height="60" as="geometry"/>
                </mxCell>
                <mxCell id="iPYovIgnLKDDGat7eZfa-46" style="edgeStyle=orthogonalEdgeStyle;rounded=1;orthogonalLoop=1;jettySize=auto;html=1;entryX=0.5;entryY=1;entryDx=0;entryDy=0;" parent="1" source="iPYovIgnLKDDGat7eZfa-4" target="iPYovIgnLKDDGat7eZfa-1" edge="1">
                    <mxGeometry relative="1" as="geometry"/>
                </mxCell>
                <mxCell id="iPYovIgnLKDDGat7eZfa-4" value="&lt;div&gt;Fonico&lt;/div&gt;" style="rounded=1;whiteSpace=wrap;html=1;fillColor=#6a00ff;strokeColor=#3700CC;fontColor=#ffffff;" parent="1" vertex="1">
                    <mxGeometry x="546" y="-190" width="120" height="60" as="geometry"/>
                </mxCell>
                <mxCell id="iPYovIgnLKDDGat7eZfa-5" value="Utente" style="rounded=1;whiteSpace=wrap;html=1;fillColor=#6a00ff;strokeColor=#3700CC;fontColor=#ffffff;" parent="1" vertex="1">
                    <mxGeometry x="20" y="-750" width="120" height="60" as="geometry"/>
                </mxCell>
                <mxCell id="iPYovIgnLKDDGat7eZfa-127" style="edgeStyle=orthogonalEdgeStyle;rounded=1;orthogonalLoop=1;jettySize=auto;html=1;entryX=0.5;entryY=1;entryDx=0;entryDy=0;" parent="1" source="iPYovIgnLKDDGat7eZfa-7" target="iPYovIgnLKDDGat7eZfa-125" edge="1">
                    <mxGeometry relative="1" as="geometry"/>
                </mxCell>
                <mxCell id="iPYovIgnLKDDGat7eZfa-7" value="Musician" style="rounded=1;whiteSpace=wrap;html=1;fillColor=#6a00ff;strokeColor=#3700CC;fontColor=#ffffff;" parent="1" vertex="1">
                    <mxGeometry x="-477" y="-240" width="120" height="60" as="geometry"/>
                </mxCell>
                <mxCell id="iPYovIgnLKDDGat7eZfa-44" style="edgeStyle=orthogonalEdgeStyle;rounded=1;orthogonalLoop=1;jettySize=auto;html=1;entryX=0.5;entryY=1;entryDx=0;entryDy=0;" parent="1" source="iPYovIgnLKDDGat7eZfa-20" target="iPYovIgnLKDDGat7eZfa-22" edge="1">
                    <mxGeometry relative="1" as="geometry"/>
                </mxCell>
                <mxCell id="iPYovIgnLKDDGat7eZfa-20" value="Studio Manager" style="rounded=1;whiteSpace=wrap;html=1;fillColor=#6a00ff;strokeColor=#3700CC;fontColor=#ffffff;" parent="1" vertex="1">
                    <mxGeometry x="666" y="-400" width="120" height="60" as="geometry"/>
                </mxCell>
                <mxCell id="iPYovIgnLKDDGat7eZfa-41" style="edgeStyle=orthogonalEdgeStyle;rounded=1;orthogonalLoop=1;jettySize=auto;html=1;entryX=0.5;entryY=1;entryDx=0;entryDy=0;" parent="1" source="iPYovIgnLKDDGat7eZfa-22" target="iPYovIgnLKDDGat7eZfa-5" edge="1">
                    <mxGeometry relative="1" as="geometry">
                        <Array as="points">
                            <mxPoint x="500" y="-600"/>
                            <mxPoint x="80" y="-600"/>
                            <mxPoint x="80" y="-690"/>
                        </Array>
                    </mxGeometry>
                </mxCell>
                <mxCell id="iPYovIgnLKDDGat7eZfa-22" value="Dipendente" style="rounded=1;whiteSpace=wrap;html=1;fillColor=#6a00ff;strokeColor=#3700CC;fontColor=#ffffff;" parent="1" vertex="1">
                    <mxGeometry x="556" y="-560" width="120" height="60" as="geometry"/>
                </mxCell>
                <mxCell id="iPYovIgnLKDDGat7eZfa-116" style="edgeStyle=orthogonalEdgeStyle;rounded=1;orthogonalLoop=1;jettySize=auto;html=1;entryX=0.5;entryY=1;entryDx=0;entryDy=0;" parent="1" source="iPYovIgnLKDDGat7eZfa-23" target="iPYovIgnLKDDGat7eZfa-94" edge="1">
                    <mxGeometry relative="1" as="geometry">
                        <Array as="points">
                            <mxPoint x="-780" y="-440"/>
                            <mxPoint x="-644" y="-440"/>
                        </Array>
                    </mxGeometry>
                </mxCell>
                <mxCell id="iPYovIgnLKDDGat7eZfa-23" value="Producer" style="rounded=1;whiteSpace=wrap;html=1;fillColor=#6a00ff;strokeColor=#3700CC;fontColor=#ffffff;" parent="1" vertex="1">
                    <mxGeometry x="-840" y="-400" width="120" height="60" as="geometry"/>
                </mxCell>
                <mxCell id="iPYovIgnLKDDGat7eZfa-105" style="edgeStyle=orthogonalEdgeStyle;rounded=1;orthogonalLoop=1;jettySize=auto;html=1;" parent="1" source="iPYovIgnLKDDGat7eZfa-58" edge="1">
                    <mxGeometry relative="1" as="geometry">
                        <mxPoint x="80" y="-690" as="targetPoint"/>
                    </mxGeometry>
                </mxCell>
                <mxCell id="iPYovIgnLKDDGat7eZfa-145" style="edgeStyle=orthogonalEdgeStyle;rounded=1;orthogonalLoop=1;jettySize=auto;html=1;entryX=0.5;entryY=0;entryDx=0;entryDy=0;" parent="1" source="iPYovIgnLKDDGat7eZfa-58" target="iPYovIgnLKDDGat7eZfa-134" edge="1">
                    <mxGeometry relative="1" as="geometry"/>
                </mxCell>
                <mxCell id="iPYovIgnLKDDGat7eZfa-58" value="Cliente" style="rounded=1;whiteSpace=wrap;html=1;fillColor=#6a00ff;strokeColor=#3700CC;fontColor=#ffffff;" parent="1" vertex="1">
                    <mxGeometry x="20" y="-560" width="120" height="60" as="geometry"/>
                </mxCell>
                <mxCell id="iPYovIgnLKDDGat7eZfa-72" value="VISTA 1" style="text;html=1;align=center;verticalAlign=middle;resizable=0;points=[];autosize=1;strokeColor=none;fillColor=none;rounded=1;" parent="1" vertex="1">
                    <mxGeometry x="796" y="-385" width="60" height="30" as="geometry"/>
                </mxCell>
                <mxCell id="iPYovIgnLKDDGat7eZfa-74" value="VISTA 3" style="text;html=1;align=center;verticalAlign=middle;resizable=0;points=[];autosize=1;strokeColor=none;fillColor=none;rounded=1;" parent="1" vertex="1">
                    <mxGeometry x="380" y="-385" width="60" height="30" as="geometry"/>
                </mxCell>
                <mxCell id="iPYovIgnLKDDGat7eZfa-106" style="edgeStyle=orthogonalEdgeStyle;rounded=1;orthogonalLoop=1;jettySize=auto;html=1;entryX=0.5;entryY=1;entryDx=0;entryDy=0;exitX=0.5;exitY=0;exitDx=0;exitDy=0;" parent="1" source="iPYovIgnLKDDGat7eZfa-94" target="iPYovIgnLKDDGat7eZfa-5" edge="1">
                    <mxGeometry relative="1" as="geometry">
                        <Array as="points">
                            <mxPoint x="-644" y="-600"/>
                            <mxPoint x="80" y="-600"/>
                        </Array>
                    </mxGeometry>
                </mxCell>
                <mxCell id="iPYovIgnLKDDGat7eZfa-94" value="Contatto" style="rounded=1;whiteSpace=wrap;html=1;fillColor=#6a00ff;strokeColor=#3700CC;fontColor=#ffffff;" parent="1" vertex="1">
                    <mxGeometry x="-704" y="-560" width="120" height="60" as="geometry"/>
                </mxCell>
                <mxCell id="iPYovIgnLKDDGat7eZfa-128" style="edgeStyle=orthogonalEdgeStyle;rounded=1;orthogonalLoop=1;jettySize=auto;html=1;entryX=0.5;entryY=1;entryDx=0;entryDy=0;" parent="1" source="iPYovIgnLKDDGat7eZfa-96" target="iPYovIgnLKDDGat7eZfa-125" edge="1">
                    <mxGeometry relative="1" as="geometry"/>
                </mxCell>
                <mxCell id="iPYovIgnLKDDGat7eZfa-96" value="Vocalist" style="rounded=1;whiteSpace=wrap;html=1;fillColor=#6a00ff;strokeColor=#3700CC;fontColor=#ffffff;" parent="1" vertex="1">
                    <mxGeometry x="-704" y="-240" width="120" height="60" as="geometry"/>
                </mxCell>
                <mxCell id="iPYovIgnLKDDGat7eZfa-126" style="edgeStyle=orthogonalEdgeStyle;rounded=1;orthogonalLoop=1;jettySize=auto;html=1;entryX=0.5;entryY=1;entryDx=0;entryDy=0;" parent="1" source="iPYovIgnLKDDGat7eZfa-125" target="iPYovIgnLKDDGat7eZfa-94" edge="1">
                    <mxGeometry relative="1" as="geometry">
                        <Array as="points">
                            <mxPoint x="-524" y="-440"/>
                            <mxPoint x="-644" y="-440"/>
                        </Array>
                    </mxGeometry>
                </mxCell>
                <mxCell id="iPYovIgnLKDDGat7eZfa-125" value="Session Artist" style="rounded=1;whiteSpace=wrap;html=1;fillColor=#6a00ff;strokeColor=#3700CC;fontColor=#ffffff;" parent="1" vertex="1">
                    <mxGeometry x="-584" y="-400" width="120" height="60" as="geometry"/>
                </mxCell>
                <mxCell id="zni9r8m3CKPHGTrBn69Q-5" style="edgeStyle=orthogonalEdgeStyle;rounded=1;orthogonalLoop=1;jettySize=auto;html=1;entryX=0;entryY=0.25;entryDx=0;entryDy=0;" parent="1" source="iPYovIgnLKDDGat7eZfa-131" target="iPYovIgnLKDDGat7eZfa-134" edge="1">
                    <mxGeometry relative="1" as="geometry"/>
                </mxCell>
                <mxCell id="iPYovIgnLKDDGat7eZfa-131" value="Musician" style="rounded=1;whiteSpace=wrap;html=1;fillColor=#6a00ff;strokeColor=#3700CC;fontColor=#ffffff;" parent="1" vertex="1">
                    <mxGeometry x="-280" y="-490" width="120" height="60" as="geometry"/>
                </mxCell>
                <mxCell id="zni9r8m3CKPHGTrBn69Q-9" style="edgeStyle=orthogonalEdgeStyle;rounded=1;orthogonalLoop=1;jettySize=auto;html=1;exitX=0.5;exitY=1;exitDx=0;exitDy=0;entryX=0.5;entryY=0;entryDx=0;entryDy=0;strokeColor=default;endArrow=none;endFill=0;" parent="1" source="iPYovIgnLKDDGat7eZfa-134" target="iPYovIgnLKDDGat7eZfa-142" edge="1">
                    <mxGeometry relative="1" as="geometry"/>
                </mxCell>
                <mxCell id="zni9r8m3CKPHGTrBn69Q-11" style="edgeStyle=orthogonalEdgeStyle;rounded=1;orthogonalLoop=1;jettySize=auto;html=1;entryX=0.5;entryY=0;entryDx=0;entryDy=0;endArrow=none;endFill=0;" parent="1" source="iPYovIgnLKDDGat7eZfa-134" target="iPYovIgnLKDDGat7eZfa-137" edge="1">
                    <mxGeometry relative="1" as="geometry"/>
                </mxCell>
                <mxCell id="iPYovIgnLKDDGat7eZfa-134" value="Artista" style="rounded=1;whiteSpace=wrap;html=1;fillColor=#6a00ff;strokeColor=#3700CC;fontColor=#ffffff;" parent="1" vertex="1">
                    <mxGeometry x="20" y="-445" width="120" height="60" as="geometry"/>
                </mxCell>
                <mxCell id="iPYovIgnLKDDGat7eZfa-136" value="Band" style="rounded=1;whiteSpace=wrap;html=1;fillColor=#6a00ff;strokeColor=#3700CC;fontColor=#ffffff;" parent="1" vertex="1">
                    <mxGeometry x="20" y="-170" width="120" height="60" as="geometry"/>
                </mxCell>
                <mxCell id="iPYovIgnLKDDGat7eZfa-139" style="edgeStyle=orthogonalEdgeStyle;rounded=1;orthogonalLoop=1;jettySize=auto;html=1;entryX=1;entryY=0.5;entryDx=0;entryDy=0;" parent="1" source="iPYovIgnLKDDGat7eZfa-137" target="iPYovIgnLKDDGat7eZfa-136" edge="1">
                    <mxGeometry relative="1" as="geometry"/>
                </mxCell>
                <mxCell id="iPYovIgnLKDDGat7eZfa-137" value="Appartenenza Corrente" style="shape=rhombus;double=1;perimeter=rhombusPerimeter;whiteSpace=wrap;html=1;align=center;rounded=1;fillColor=#0050ef;fontColor=#ffffff;strokeColor=#001DBC;" parent="1" vertex="1">
                    <mxGeometry x="100" y="-280" width="120" height="60" as="geometry"/>
                </mxCell>
                <mxCell id="iPYovIgnLKDDGat7eZfa-141" style="edgeStyle=orthogonalEdgeStyle;rounded=1;orthogonalLoop=1;jettySize=auto;html=1;entryX=0;entryY=0.5;entryDx=0;entryDy=0;" parent="1" source="iPYovIgnLKDDGat7eZfa-142" target="iPYovIgnLKDDGat7eZfa-136" edge="1">
                    <mxGeometry relative="1" as="geometry">
                        <mxPoint y="-150" as="targetPoint"/>
                    </mxGeometry>
                </mxCell>
                <mxCell id="iPYovIgnLKDDGat7eZfa-142" value="Appartenenza Passata" style="shape=rhombus;double=1;perimeter=rhombusPerimeter;whiteSpace=wrap;html=1;align=center;rounded=1;fillColor=#0050ef;fontColor=#ffffff;strokeColor=#001DBC;" parent="1" vertex="1">
                    <mxGeometry x="-60" y="-280" width="120" height="60" as="geometry"/>
                </mxCell>
                <mxCell id="zni9r8m3CKPHGTrBn69Q-6" style="edgeStyle=orthogonalEdgeStyle;rounded=1;orthogonalLoop=1;jettySize=auto;html=1;entryX=0;entryY=0.75;entryDx=0;entryDy=0;" parent="1" source="zni9r8m3CKPHGTrBn69Q-2" target="iPYovIgnLKDDGat7eZfa-134" edge="1">
                    <mxGeometry relative="1" as="geometry"/>
                </mxCell>
                <mxCell id="zni9r8m3CKPHGTrBn69Q-2" value="Vocalist" style="rounded=1;whiteSpace=wrap;html=1;fillColor=#6a00ff;strokeColor=#3700CC;fontColor=#ffffff;" parent="1" vertex="1">
                    <mxGeometry x="-280" y="-400" width="120" height="60" as="geometry"/>
                </mxCell>
                <mxCell id="196" style="edgeStyle=none;html=1;startArrow=none;startFill=0;endArrow=none;endFill=0;" parent="1" source="179" edge="1">
                    <mxGeometry relative="1" as="geometry">
                        <mxPoint x="-630.5000000000002" y="1170" as="targetPoint"/>
                    </mxGeometry>
                </mxCell>
                <mxCell id="373" value="" style="edgeStyle=none;html=1;endArrow=none;endFill=0;" parent="1" source="179" target="372" edge="1">
                    <mxGeometry relative="1" as="geometry"/>
                </mxCell>
                <mxCell id="376" value="" style="edgeStyle=none;html=1;endArrow=none;endFill=0;" parent="1" source="179" target="375" edge="1">
                    <mxGeometry relative="1" as="geometry"/>
                </mxCell>
                <mxCell id="381" value="" style="edgeStyle=none;html=1;endArrow=none;endFill=0;" parent="1" source="179" target="380" edge="1">
                    <mxGeometry relative="1" as="geometry"/>
                </mxCell>
                <mxCell id="179" value="Artist" style="rounded=1;whiteSpace=wrap;html=1;fillColor=#6a00ff;strokeColor=#3700CC;" parent="1" vertex="1">
                    <mxGeometry x="-690.5" y="1070" width="120" height="60" as="geometry"/>
                </mxCell>
                <mxCell id="193" style="edgeStyle=none;html=1;startArrow=none;startFill=0;endArrow=none;endFill=0;entryX=0.5;entryY=0;entryDx=0;entryDy=0;" parent="1" source="180" target="181" edge="1">
                    <mxGeometry relative="1" as="geometry">
                        <mxPoint x="-430.5" y="1170" as="targetPoint"/>
                        <Array as="points">
                            <mxPoint x="-800.5" y="1170"/>
                            <mxPoint x="-630.5" y="1170"/>
                            <mxPoint x="-460.5" y="1170"/>
                        </Array>
                    </mxGeometry>
                </mxCell>
                <mxCell id="200" value="" style="edgeStyle=none;html=1;startArrow=none;startFill=0;endArrow=none;endFill=0;" parent="1" source="180" target="199" edge="1">
                    <mxGeometry relative="1" as="geometry"/>
                </mxCell>
                <mxCell id="180" value="Band" style="rounded=1;whiteSpace=wrap;html=1;fillColor=#6a00ff;strokeColor=#3700CC;" parent="1" vertex="1">
                    <mxGeometry x="-860" y="1230" width="120" height="60" as="geometry"/>
                </mxCell>
                <mxCell id="206" value="" style="edgeStyle=none;html=1;startArrow=none;startFill=0;endArrow=none;endFill=0;" parent="1" source="181" target="205" edge="1">
                    <mxGeometry relative="1" as="geometry"/>
                </mxCell>
                <mxCell id="209" style="edgeStyle=none;html=1;entryX=0.5;entryY=0;entryDx=0;entryDy=0;startArrow=none;startFill=0;endArrow=none;endFill=0;" parent="1" source="181" target="208" edge="1">
                    <mxGeometry relative="1" as="geometry"/>
                </mxCell>
                <mxCell id="365" value="M" style="edgeLabel;html=1;align=center;verticalAlign=middle;resizable=0;points=[];" parent="209" connectable="0" vertex="1">
                    <mxGeometry x="-0.6131" y="-2" relative="1" as="geometry">
                        <mxPoint x="12" as="offset"/>
                    </mxGeometry>
                </mxCell>
                <mxCell id="181" value="Solo Performer" style="rounded=1;whiteSpace=wrap;html=1;fillColor=#6a00ff;strokeColor=#3700CC;" parent="1" vertex="1">
                    <mxGeometry x="-520.5" y="1230" width="120" height="60" as="geometry"/>
                </mxCell>
                <mxCell id="184" value="" style="edgeStyle=none;html=1;" parent="1" source="182" target="180" edge="1">
                    <mxGeometry relative="1" as="geometry"/>
                </mxCell>
                <mxCell id="354" value="M" style="edgeLabel;html=1;align=center;verticalAlign=middle;resizable=0;points=[];" parent="184" connectable="0" vertex="1">
                    <mxGeometry x="0.4132" relative="1" as="geometry">
                        <mxPoint x="-2" y="-10" as="offset"/>
                    </mxGeometry>
                </mxCell>
                <mxCell id="189" value="" style="edgeStyle=none;html=1;startArrow=none;startFill=0;endArrow=none;endFill=0;" parent="1" source="182" target="181" edge="1">
                    <mxGeometry relative="1" as="geometry"/>
                </mxCell>
                <mxCell id="355" value="N" style="edgeLabel;html=1;align=center;verticalAlign=middle;resizable=0;points=[];" parent="189" connectable="0" vertex="1">
                    <mxGeometry x="0.1686" relative="1" as="geometry">
                        <mxPoint x="7" y="-10" as="offset"/>
                    </mxGeometry>
                </mxCell>
                <mxCell id="203" value="" style="edgeStyle=none;html=1;startArrow=none;startFill=0;endArrow=none;endFill=0;" parent="1" source="182" target="202" edge="1">
                    <mxGeometry relative="1" as="geometry"/>
                </mxCell>
                <mxCell id="182" value="GroupMember" style="shape=rhombus;double=1;perimeter=rhombusPerimeter;whiteSpace=wrap;html=1;align=center;rounded=1;fillColor=#0050ef;fontColor=#ffffff;strokeColor=#001DBC;" parent="1" vertex="1">
                    <mxGeometry x="-700.5" y="1230" width="140" height="60" as="geometry"/>
                </mxCell>
                <mxCell id="199" value="" style="shape=waypoint;size=6;pointerEvents=1;points=[];fillColor=#6a00ff;resizable=0;rotatable=0;perimeter=centerPerimeter;snapToPoint=1;strokeColor=#3700CC;rounded=1;" parent="1" vertex="1">
                    <mxGeometry x="-920.5" y="1250" width="20" height="20" as="geometry"/>
                </mxCell>
                <mxCell id="201" value="FormationDate" style="text;html=1;align=center;verticalAlign=middle;resizable=0;points=[];autosize=1;strokeColor=none;fillColor=none;" parent="1" vertex="1">
                    <mxGeometry x="-1010" y="1245" width="100" height="30" as="geometry"/>
                </mxCell>
                <mxCell id="202" value="" style="shape=waypoint;size=6;pointerEvents=1;points=[];fillColor=#0050ef;resizable=0;rotatable=0;perimeter=centerPerimeter;snapToPoint=1;strokeColor=#001DBC;fontColor=#ffffff;rounded=1;" parent="1" vertex="1">
                    <mxGeometry x="-640.5" y="1330" width="20" height="20" as="geometry"/>
                </mxCell>
                <mxCell id="204" value="JoinedDate" style="text;html=1;align=center;verticalAlign=middle;resizable=0;points=[];autosize=1;strokeColor=none;fillColor=none;" parent="1" vertex="1">
                    <mxGeometry x="-670.5" y="1350" width="80" height="30" as="geometry"/>
                </mxCell>
                <mxCell id="205" value="" style="shape=waypoint;size=6;pointerEvents=1;points=[];fillColor=#6a00ff;resizable=0;rotatable=0;perimeter=centerPerimeter;snapToPoint=1;strokeColor=#3700CC;rounded=1;" parent="1" vertex="1">
                    <mxGeometry x="-350" y="1250" width="20" height="20" as="geometry"/>
                </mxCell>
                <mxCell id="207" value="BirthDate" style="text;html=1;align=center;verticalAlign=middle;resizable=0;points=[];autosize=1;strokeColor=none;fillColor=none;" parent="1" vertex="1">
                    <mxGeometry x="-330" y="1245" width="70" height="30" as="geometry"/>
                </mxCell>
                <mxCell id="211" value="" style="edgeStyle=none;html=1;startArrow=none;startFill=0;endArrow=none;endFill=0;" parent="1" source="208" target="210" edge="1">
                    <mxGeometry relative="1" as="geometry"/>
                </mxCell>
                <mxCell id="366" value="N" style="edgeLabel;html=1;align=center;verticalAlign=middle;resizable=0;points=[];" parent="211" connectable="0" vertex="1">
                    <mxGeometry x="-0.3849" y="-2" relative="1" as="geometry">
                        <mxPoint x="12" y="14" as="offset"/>
                    </mxGeometry>
                </mxCell>
                <mxCell id="208" value="suonare" style="shape=rhombus;double=1;perimeter=rhombusPerimeter;whiteSpace=wrap;html=1;align=center;rounded=1;fillColor=#0050ef;fontColor=#ffffff;strokeColor=#001DBC;" parent="1" vertex="1">
                    <mxGeometry x="-530.5" y="1335" width="140" height="60" as="geometry"/>
                </mxCell>
                <mxCell id="215" value="" style="edgeStyle=none;html=1;startArrow=none;startFill=0;endArrow=none;endFill=0;" parent="1" source="210" target="214" edge="1">
                    <mxGeometry relative="1" as="geometry"/>
                </mxCell>
                <mxCell id="218" value="" style="edgeStyle=none;html=1;startArrow=none;startFill=0;endArrow=none;endFill=0;" parent="1" source="210" target="217" edge="1">
                    <mxGeometry relative="1" as="geometry"/>
                </mxCell>
                <mxCell id="210" value="Instrument" style="rounded=1;whiteSpace=wrap;html=1;fillColor=#6a00ff;strokeColor=#3700CC;" parent="1" vertex="1">
                    <mxGeometry x="-520.5" y="1430" width="120" height="60" as="geometry"/>
                </mxCell>
                <mxCell id="214" value="" style="shape=waypoint;size=6;pointerEvents=1;points=[];fillColor=#6a00ff;resizable=0;rotatable=0;perimeter=centerPerimeter;snapToPoint=1;strokeColor=#3700CC;rounded=1;" parent="1" vertex="1">
                    <mxGeometry x="-470.5" y="1520" width="20" height="20" as="geometry"/>
                </mxCell>
                <mxCell id="216" value="Name" style="text;html=1;align=center;verticalAlign=middle;resizable=0;points=[];autosize=1;strokeColor=none;fillColor=none;" parent="1" vertex="1">
                    <mxGeometry x="-490.5" y="1530" width="60" height="30" as="geometry"/>
                </mxCell>
                <mxCell id="217" value="" style="shape=waypoint;size=6;pointerEvents=1;points=[];fillColor=#6a00ff;resizable=0;rotatable=0;perimeter=centerPerimeter;snapToPoint=1;strokeColor=#3700CC;rounded=1;" parent="1" vertex="1">
                    <mxGeometry x="-350" y="1450" width="20" height="20" as="geometry"/>
                </mxCell>
                <mxCell id="264" value="InstrumentNumber" style="text;html=1;align=center;verticalAlign=middle;resizable=0;points=[];autosize=1;strokeColor=none;fillColor=none;" parent="1" vertex="1">
                    <mxGeometry x="-340" y="1445" width="120" height="30" as="geometry"/>
                </mxCell>
                <mxCell id="270" style="html=1;startArrow=none;startFill=0;endArrow=none;endFill=0;entryX=0.5;entryY=0;entryDx=0;entryDy=0;" parent="1" target="181" edge="1">
                    <mxGeometry relative="1" as="geometry">
                        <mxPoint x="-460.5" y="1230" as="targetPoint"/>
                        <mxPoint x="-460" y="1230" as="sourcePoint"/>
                    </mxGeometry>
                </mxCell>
                <mxCell id="301" style="edgeStyle=orthogonalEdgeStyle;rounded=0;html=1;endArrow=classic;endFill=1;" parent="1" source="302" edge="1">
                    <mxGeometry relative="1" as="geometry">
                        <mxPoint x="-588.5" y="2117.5" as="targetPoint"/>
                        <Array as="points">
                            <mxPoint x="-739" y="2177.5"/>
                            <mxPoint x="-588" y="2177.5"/>
                        </Array>
                    </mxGeometry>
                </mxCell>
                <mxCell id="302" value="Prenotazione oraria" style="rounded=1;whiteSpace=wrap;html=1;fillColor=#6a00ff;strokeColor=#3700CC;" parent="1" vertex="1">
                    <mxGeometry x="-799.5" y="2207.5" width="120" height="60" as="geometry"/>
                </mxCell>
                <mxCell id="303" style="edgeStyle=orthogonalEdgeStyle;rounded=0;html=1;entryX=0.5;entryY=1;entryDx=0;entryDy=0;endArrow=classic;endFill=1;" parent="1" source="304" target="300" edge="1">
                    <mxGeometry relative="1" as="geometry"/>
                </mxCell>
                <mxCell id="304" value="Prenotazione a giorni singoli" style="rounded=1;whiteSpace=wrap;html=1;fillColor=#6a00ff;strokeColor=#3700CC;" parent="1" vertex="1">
                    <mxGeometry x="-648.5" y="2207.5" width="120" height="60" as="geometry"/>
                </mxCell>
                <mxCell id="305" style="edgeStyle=orthogonalEdgeStyle;rounded=0;html=1;endArrow=classic;endFill=1;" parent="1" source="306" edge="1">
                    <mxGeometry relative="1" as="geometry">
                        <mxPoint x="-588.5" y="2117.5" as="targetPoint"/>
                        <Array as="points">
                            <mxPoint x="-438.5" y="2177.5"/>
                            <mxPoint x="-588.5" y="2177.5"/>
                        </Array>
                    </mxGeometry>
                </mxCell>
                <mxCell id="306" value="Prenotazione a pacchetto" style="rounded=1;whiteSpace=wrap;html=1;fillColor=#6a00ff;strokeColor=#3700CC;" parent="1" vertex="1">
                    <mxGeometry x="-498.5" y="2207.5" width="120" height="60" as="geometry"/>
                </mxCell>
                <mxCell id="307" style="edgeStyle=orthogonalEdgeStyle;rounded=0;html=1;entryX=0.5;entryY=1;entryDx=0;entryDy=0;endArrow=classic;endFill=1;" parent="1" source="308" target="306" edge="1">
                    <mxGeometry relative="1" as="geometry">
                        <Array as="points">
                            <mxPoint x="-558" y="2317.5"/>
                            <mxPoint x="-438" y="2317.5"/>
                        </Array>
                    </mxGeometry>
                </mxCell>
                <mxCell id="308" value="Prenotazione&lt;br&gt;settimanale" style="rounded=1;whiteSpace=wrap;html=1;fillColor=#6a00ff;strokeColor=#3700CC;" parent="1" vertex="1">
                    <mxGeometry x="-618.5" y="2347.5" width="120" height="60" as="geometry"/>
                </mxCell>
                <mxCell id="309" style="edgeStyle=orthogonalEdgeStyle;rounded=0;html=1;entryX=0.5;entryY=1;entryDx=0;entryDy=0;endArrow=classic;endFill=1;" parent="1" source="310" target="306" edge="1">
                    <mxGeometry relative="1" as="geometry">
                        <Array as="points">
                            <mxPoint x="-318" y="2317.5"/>
                            <mxPoint x="-438" y="2317.5"/>
                        </Array>
                    </mxGeometry>
                </mxCell>
                <mxCell id="310" value="Prenotazione&lt;br&gt;mensile" style="rounded=1;whiteSpace=wrap;html=1;fillColor=#6a00ff;strokeColor=#3700CC;" parent="1" vertex="1">
                    <mxGeometry x="-378.5" y="2347.5" width="120" height="60" as="geometry"/>
                </mxCell>
                <mxCell id="311" value="Cliente" style="rounded=1;whiteSpace=wrap;html=1;fillColor=#6a00ff;strokeColor=#3700CC;fontColor=#ffffff;" parent="1" vertex="1">
                    <mxGeometry x="-1020" y="2057.5" width="120" height="60" as="geometry"/>
                </mxCell>
                <mxCell id="312" value="" style="edgeStyle=orthogonalEdgeStyle;html=1;endArrow=none;endFill=0;" parent="1" source="314" target="311" edge="1">
                    <mxGeometry relative="1" as="geometry"/>
                </mxCell>
                <mxCell id="313" value="" style="edgeStyle=orthogonalEdgeStyle;html=1;" parent="1" source="314" target="300" edge="1">
                    <mxGeometry relative="1" as="geometry"/>
                </mxCell>
                <mxCell id="314" value="effettua" style="shape=rhombus;double=1;perimeter=rhombusPerimeter;whiteSpace=wrap;html=1;align=center;rounded=1;fillColor=#0050ef;fontColor=#ffffff;strokeColor=#001DBC;" parent="1" vertex="1">
                    <mxGeometry x="-840" y="2057.5" width="120" height="60" as="geometry"/>
                </mxCell>
                <mxCell id="300" value="Prenotazione" style="rounded=1;whiteSpace=wrap;html=1;fillColor=#6a00ff;strokeColor=#3700CC;" parent="1" vertex="1">
                    <mxGeometry x="-648.5" y="2057.5" width="120" height="60" as="geometry"/>
                </mxCell>
                <mxCell id="321" style="edgeStyle=none;html=1;entryX=0.5;entryY=0;entryDx=0;entryDy=0;" parent="1" source="325" target="326" edge="1">
                    <mxGeometry relative="1" as="geometry"/>
                </mxCell>
                <mxCell id="322" value="Contatto" style="rounded=1;whiteSpace=wrap;html=1;fillColor=#6a00ff;strokeColor=#3700CC;" parent="1" vertex="1">
                    <mxGeometry x="-623.5" y="2695" width="120" height="60" as="geometry"/>
                </mxCell>
                <mxCell id="550" value="" style="edgeStyle=none;html=1;exitX=0.5;exitY=1;exitDx=0;exitDy=0;" parent="1" source="323" target="329" edge="1">
                    <mxGeometry relative="1" as="geometry">
                        <mxPoint x="-654.5" y="2946" as="targetPoint"/>
                    </mxGeometry>
                </mxCell>
                <mxCell id="323" value="partecipazione" style="shape=rhombus;double=1;perimeter=rhombusPerimeter;whiteSpace=wrap;html=1;align=center;rounded=1;fillColor=#0050ef;fontColor=#ffffff;strokeColor=#001DBC;" parent="1" vertex="1">
                    <mxGeometry x="-637.5" y="2805" width="140" height="60" as="geometry"/>
                </mxCell>
                <mxCell id="325" value="Tecnico" style="rounded=1;whiteSpace=wrap;html=1;fillColor=#6a00ff;strokeColor=#3700CC;" parent="1" vertex="1">
                    <mxGeometry x="-789.5" y="2695" width="120" height="60" as="geometry"/>
                </mxCell>
                <mxCell id="549" value="" style="edgeStyle=none;html=1;" parent="1" target="329" edge="1">
                    <mxGeometry relative="1" as="geometry">
                        <mxPoint x="-729.5" y="2860" as="sourcePoint"/>
                    </mxGeometry>
                </mxCell>
                <mxCell id="326" value="partecipazione" style="shape=rhombus;double=1;perimeter=rhombusPerimeter;whiteSpace=wrap;html=1;align=center;rounded=1;fillColor=#0050ef;fontColor=#ffffff;strokeColor=#001DBC;" parent="1" vertex="1">
                    <mxGeometry x="-799.5" y="2797.5" width="140" height="60" as="geometry"/>
                </mxCell>
                <mxCell id="327" style="edgeStyle=none;html=1;entryX=0;entryY=0.5;entryDx=0;entryDy=0;startArrow=none;startFill=0;endArrow=none;endFill=0;" parent="1" source="329" target="350" edge="1">
                    <mxGeometry relative="1" as="geometry"/>
                </mxCell>
                <mxCell id="329" value="Produzione" style="rounded=1;whiteSpace=wrap;html=1;fillColor=#6a00ff;strokeColor=#3700CC;" parent="1" vertex="1">
                    <mxGeometry x="-730.5" y="2950" width="120" height="60" as="geometry"/>
                </mxCell>
                <mxCell id="330" style="edgeStyle=none;html=1;entryX=0;entryY=0.5;entryDx=0;entryDy=0;startArrow=classic;startFill=1;endArrow=none;endFill=0;" parent="1" source="333" target="334" edge="1">
                    <mxGeometry relative="1" as="geometry">
                        <Array as="points">
                            <mxPoint x="-240.5" y="2980"/>
                        </Array>
                    </mxGeometry>
                </mxCell>
                <mxCell id="331" style="edgeStyle=none;html=1;entryX=0;entryY=0.5;entryDx=0;entryDy=0;startArrow=classic;startFill=1;endArrow=none;endFill=0;" parent="1" source="333" target="335" edge="1">
                    <mxGeometry relative="1" as="geometry">
                        <Array as="points">
                            <mxPoint x="-240.5" y="2980"/>
                        </Array>
                    </mxGeometry>
                </mxCell>
                <mxCell id="332" style="edgeStyle=none;html=1;entryX=0.974;entryY=0.497;entryDx=0;entryDy=0;entryPerimeter=0;startArrow=classic;startFill=1;endArrow=none;endFill=0;" parent="1" source="333" target="350" edge="1">
                    <mxGeometry relative="1" as="geometry"/>
                </mxCell>
                <mxCell id="333" value="Copie" style="rounded=1;whiteSpace=wrap;html=1;fillColor=#6a00ff;strokeColor=#3700CC;" parent="1" vertex="1">
                    <mxGeometry x="-410.5" y="2950" width="120" height="60" as="geometry"/>
                </mxCell>
                <mxCell id="334" value="Vinili" style="rounded=1;whiteSpace=wrap;html=1;fillColor=#6a00ff;strokeColor=#3700CC;" parent="1" vertex="1">
                    <mxGeometry x="-209.5" y="2895" width="120" height="60" as="geometry"/>
                </mxCell>
                <mxCell id="335" value="Audiocassette" style="rounded=1;whiteSpace=wrap;html=1;fillColor=#6a00ff;strokeColor=#3700CC;" parent="1" vertex="1">
                    <mxGeometry x="-209.5" y="3005" width="120" height="60" as="geometry"/>
                </mxCell>
                <mxCell id="336" style="edgeStyle=orthogonalEdgeStyle;rounded=1;orthogonalLoop=1;jettySize=auto;html=1;entryX=0.5;entryY=1;entryDx=0;entryDy=0;" parent="1" source="337" target="329" edge="1">
                    <mxGeometry relative="1" as="geometry">
                        <Array as="points">
                            <mxPoint x="-840.5" y="3050"/>
                            <mxPoint x="-670.5" y="3050"/>
                        </Array>
                    </mxGeometry>
                </mxCell>
                <mxCell id="337" value="Singolo" style="rounded=1;whiteSpace=wrap;html=1;fillColor=#6a00ff;strokeColor=#3700CC;" parent="1" vertex="1">
                    <mxGeometry x="-890.5" y="3090" width="120" height="60" as="geometry"/>
                </mxCell>
                <mxCell id="338" style="edgeStyle=orthogonalEdgeStyle;rounded=1;orthogonalLoop=1;jettySize=auto;html=1;entryX=0.5;entryY=1;entryDx=0;entryDy=0;" parent="1" source="339" target="329" edge="1">
                    <mxGeometry relative="1" as="geometry">
                        <Array as="points">
                            <mxPoint x="-510.5" y="3050"/>
                            <mxPoint x="-670.5" y="3050"/>
                        </Array>
                    </mxGeometry>
                </mxCell>
                <mxCell id="339" value="Album" style="rounded=1;whiteSpace=wrap;html=1;fillColor=#6a00ff;strokeColor=#3700CC;" parent="1" vertex="1">
                    <mxGeometry x="-570.5" y="3090" width="120" height="60" as="geometry"/>
                </mxCell>
                <mxCell id="340" style="edgeStyle=orthogonalEdgeStyle;rounded=1;orthogonalLoop=1;jettySize=auto;html=1;entryX=0.5;entryY=1;entryDx=0;entryDy=0;" parent="1" source="341" target="329" edge="1">
                    <mxGeometry relative="1" as="geometry">
                        <mxPoint x="-670.5" y="3020" as="targetPoint"/>
                    </mxGeometry>
                </mxCell>
                <mxCell id="341" value="Extended Play" style="rounded=1;whiteSpace=wrap;html=1;fillColor=#6a00ff;strokeColor=#3700CC;" parent="1" vertex="1">
                    <mxGeometry x="-730.5" y="3090" width="120" height="60" as="geometry"/>
                </mxCell>
                <mxCell id="342" style="edgeStyle=orthogonalEdgeStyle;rounded=1;orthogonalLoop=1;jettySize=auto;html=1;entryX=0;entryY=0.5;entryDx=0;entryDy=0;endArrow=none;endFill=0;" parent="1" source="343" target="348" edge="1">
                    <mxGeometry relative="1" as="geometry"/>
                </mxCell>
                <mxCell id="343" value="Artista" style="rounded=1;whiteSpace=wrap;html=1;fillColor=#6a00ff;strokeColor=#3700CC;" parent="1" vertex="1">
                    <mxGeometry x="-1070.5" y="2950" width="120" height="60" as="geometry"/>
                </mxCell>
                <mxCell id="347" style="edgeStyle=orthogonalEdgeStyle;rounded=1;orthogonalLoop=1;jettySize=auto;html=1;entryX=0;entryY=0.5;entryDx=0;entryDy=0;" parent="1" source="348" edge="1">
                    <mxGeometry relative="1" as="geometry">
                        <mxPoint x="-730.5" y="2980" as="targetPoint"/>
                    </mxGeometry>
                </mxCell>
                <mxCell id="348" value="partecipazione" style="shape=rhombus;double=1;perimeter=rhombusPerimeter;whiteSpace=wrap;html=1;align=center;rounded=1;fillColor=#0050ef;fontColor=#ffffff;strokeColor=#001DBC;" parent="1" vertex="1">
                    <mxGeometry x="-910.5" y="2950" width="140" height="60" as="geometry"/>
                </mxCell>
                <mxCell id="349" style="edgeStyle=elbowEdgeStyle;html=1;entryX=0.5;entryY=0;entryDx=0;entryDy=0;rounded=1;" parent="1" source="322" target="323" edge="1">
                    <mxGeometry relative="1" as="geometry"/>
                </mxCell>
                <mxCell id="350" value="ha" style="shape=rhombus;double=1;perimeter=rhombusPerimeter;whiteSpace=wrap;html=1;align=center;rounded=1;fillColor=#0050ef;fontColor=#ffffff;strokeColor=#001DBC;" parent="1" vertex="1">
                    <mxGeometry x="-580.5" y="2950" width="140" height="60" as="geometry"/>
                </mxCell>
                <mxCell id="363" value="(t,e)" style="text;html=1;align=center;verticalAlign=middle;resizable=0;points=[];autosize=1;strokeColor=none;fillColor=none;" parent="1" vertex="1">
                    <mxGeometry x="-637" y="1140" width="40" height="30" as="geometry"/>
                </mxCell>
                <mxCell id="372" value="" style="shape=waypoint;sketch=0;size=6;pointerEvents=1;points=[];fillColor=#6a00ff;resizable=0;rotatable=0;perimeter=centerPerimeter;snapToPoint=1;strokeColor=#3700CC;rounded=1;gradientColor=#FF6666;" parent="1" vertex="1">
                    <mxGeometry x="-640.5" y="1020" width="20" height="20" as="geometry"/>
                </mxCell>
                <mxCell id="374" value="ArtistNumber" style="text;html=1;align=center;verticalAlign=middle;resizable=0;points=[];autosize=1;strokeColor=none;fillColor=none;gradientColor=none;" parent="1" vertex="1">
                    <mxGeometry x="-675.5" y="1000" width="90" height="30" as="geometry"/>
                </mxCell>
                <mxCell id="375" value="" style="shape=waypoint;sketch=0;size=6;pointerEvents=1;points=[];fillColor=#6a00ff;resizable=0;rotatable=0;perimeter=centerPerimeter;snapToPoint=1;strokeColor=#3700CC;rounded=1;" parent="1" vertex="1">
                    <mxGeometry x="-749.5" y="1090" width="20" height="20" as="geometry"/>
                </mxCell>
                <mxCell id="378" value="Type" style="text;html=1;align=center;verticalAlign=middle;resizable=0;points=[];autosize=1;strokeColor=none;fillColor=none;" parent="1" vertex="1">
                    <mxGeometry x="-790" y="1085" width="50" height="30" as="geometry"/>
                </mxCell>
                <mxCell id="379" value="Name" style="text;html=1;align=center;verticalAlign=middle;resizable=0;points=[];autosize=1;strokeColor=none;fillColor=none;" parent="1" vertex="1">
                    <mxGeometry x="-519.5" y="1085" width="60" height="30" as="geometry"/>
                </mxCell>
                <mxCell id="380" value="" style="shape=waypoint;sketch=0;size=6;pointerEvents=1;points=[];fillColor=#6a00ff;resizable=0;rotatable=0;perimeter=centerPerimeter;snapToPoint=1;strokeColor=#3700CC;rounded=1;" parent="1" vertex="1">
                    <mxGeometry x="-529.5" y="1090" width="20" height="20" as="geometry"/>
                </mxCell>
                <mxCell id="383" value="Contesto dell'artista e della band" style="text;strokeColor=none;fillColor=none;html=1;fontSize=24;fontStyle=1;verticalAlign=middle;align=center;" parent="1" vertex="1">
                    <mxGeometry x="-818.25" y="880" width="415.5" height="40" as="geometry"/>
                </mxCell>
                <mxCell id="385" value="Contesto delle prenotazioni" style="text;strokeColor=none;fillColor=none;html=1;fontSize=24;fontStyle=1;verticalAlign=middle;align=center;" parent="1" vertex="1">
                    <mxGeometry x="-791.75" y="1660" width="415.5" height="40" as="geometry"/>
                </mxCell>
                <mxCell id="386" value="Contesto delle Produzioni Musicali" style="text;strokeColor=none;fillColor=none;html=1;fontSize=24;fontStyle=1;verticalAlign=middle;align=center;" parent="1" vertex="1">
                    <mxGeometry x="-1026" y="2610" width="415.5" height="40" as="geometry"/>
                </mxCell>
                <mxCell id="387" value="&lt;font style=&quot;font-size: 33px;&quot;&gt;ツ&lt;/font&gt;" style="text;html=1;align=center;verticalAlign=middle;resizable=0;points=[];autosize=1;strokeColor=none;fillColor=none;" parent="1" vertex="1">
                    <mxGeometry x="2250" y="-800" width="60" height="50" as="geometry"/>
                </mxCell>
                <mxCell id="390" value="Sala" style="rounded=1;whiteSpace=wrap;html=1;fillColor=#6a00ff;strokeColor=#3700CC;fontColor=#ffffff;" parent="1" vertex="1">
                    <mxGeometry x="-300" y="2057.5" width="120" height="60" as="geometry"/>
                </mxCell>
                <mxCell id="394" style="edgeStyle=none;html=1;entryX=1;entryY=0.5;entryDx=0;entryDy=0;" parent="1" source="393" target="300" edge="1">
                    <mxGeometry relative="1" as="geometry"/>
                </mxCell>
                <mxCell id="395" value="" style="edgeStyle=none;html=1;endArrow=none;endFill=0;" parent="1" source="393" target="390" edge="1">
                    <mxGeometry relative="1" as="geometry"/>
                </mxCell>
                <mxCell id="393" value="di" style="shape=rhombus;double=1;perimeter=rhombusPerimeter;whiteSpace=wrap;html=1;align=center;rounded=1;fillColor=#0050ef;fontColor=#ffffff;strokeColor=#001DBC;" parent="1" vertex="1">
                    <mxGeometry x="-470" y="2057.5" width="120" height="60" as="geometry"/>
                </mxCell>
                <mxCell id="428" style="edgeStyle=orthogonalEdgeStyle;html=1;entryX=0;entryY=0.5;entryDx=0;entryDy=0;endArrow=none;endFill=0;" parent="1" source="396" target="427" edge="1">
                    <mxGeometry relative="1" as="geometry"/>
                </mxCell>
                <mxCell id="396" value="Pagamento" style="rounded=1;whiteSpace=wrap;html=1;fillColor=#6a00ff;strokeColor=#3700CC;" parent="1" vertex="1">
                    <mxGeometry x="-1019.5" y="1945" width="120" height="60" as="geometry"/>
                </mxCell>
                <mxCell id="425" value="" style="edgeStyle=orthogonalEdgeStyle;html=1;endArrow=none;endFill=0;" parent="1" source="397" target="424" edge="1">
                    <mxGeometry relative="1" as="geometry"/>
                </mxCell>
                <mxCell id="397" value="Cancellazione" style="rounded=1;whiteSpace=wrap;html=1;fillColor=#6a00ff;strokeColor=#3700CC;" parent="1" vertex="1">
                    <mxGeometry x="-300" y="1945" width="120" height="60" as="geometry"/>
                </mxCell>
                <mxCell id="399" value="1" style="text;html=1;align=center;verticalAlign=middle;resizable=0;points=[];autosize=1;strokeColor=none;fillColor=none;" parent="1" vertex="1">
                    <mxGeometry x="-900.5" y="2057.5" width="30" height="30" as="geometry"/>
                </mxCell>
                <mxCell id="400" value="N" style="text;html=1;align=center;verticalAlign=middle;resizable=0;points=[];autosize=1;strokeColor=none;fillColor=none;" parent="1" vertex="1">
                    <mxGeometry x="-675.5" y="2057.5" width="30" height="30" as="geometry"/>
                </mxCell>
                <mxCell id="401" value="1" style="text;html=1;align=center;verticalAlign=middle;resizable=0;points=[];autosize=1;strokeColor=none;fillColor=none;" parent="1" vertex="1">
                    <mxGeometry x="-330" y="2057.5" width="30" height="30" as="geometry"/>
                </mxCell>
                <mxCell id="402" value="N" style="text;html=1;align=center;verticalAlign=middle;resizable=0;points=[];autosize=1;strokeColor=none;fillColor=none;" parent="1" vertex="1">
                    <mxGeometry x="-528.5" y="2057.5" width="30" height="30" as="geometry"/>
                </mxCell>
                <mxCell id="403" value="(t,e)" style="text;html=1;align=center;verticalAlign=middle;resizable=0;points=[];autosize=1;strokeColor=none;fillColor=none;" parent="1" vertex="1">
                    <mxGeometry x="-585.5" y="2117.5" width="40" height="30" as="geometry"/>
                </mxCell>
                <mxCell id="404" value="(t,e)" style="text;html=1;align=center;verticalAlign=middle;resizable=0;points=[];autosize=1;strokeColor=none;fillColor=none;" parent="1" vertex="1">
                    <mxGeometry x="-437" y="2267.5" width="40" height="30" as="geometry"/>
                </mxCell>
                <mxCell id="407" value="0" style="text;html=1;align=center;verticalAlign=middle;resizable=0;points=[];autosize=1;strokeColor=none;fillColor=none;" parent="1" vertex="1">
                    <mxGeometry x="-899.5" y="1945" width="30" height="30" as="geometry"/>
                </mxCell>
                <mxCell id="408" value="1" style="text;html=1;align=center;verticalAlign=middle;resizable=0;points=[];autosize=1;strokeColor=none;fillColor=none;" parent="1" vertex="1">
                    <mxGeometry x="-618.5" y="2027.5" width="30" height="30" as="geometry"/>
                </mxCell>
                <mxCell id="409" value="0" style="text;html=1;align=center;verticalAlign=middle;resizable=0;points=[];autosize=1;strokeColor=none;fillColor=none;" parent="1" vertex="1">
                    <mxGeometry x="-330" y="1945" width="30" height="30" as="geometry"/>
                </mxCell>
                <mxCell id="410" value="1" style="text;html=1;align=center;verticalAlign=middle;resizable=0;points=[];autosize=1;strokeColor=none;fillColor=none;" parent="1" vertex="1">
                    <mxGeometry x="-589.75" y="2027.5" width="30" height="30" as="geometry"/>
                </mxCell>
                <mxCell id="416" style="edgeStyle=orthogonalEdgeStyle;html=1;entryX=0.75;entryY=0;entryDx=0;entryDy=0;" parent="1" source="413" target="396" edge="1">
                    <mxGeometry relative="1" as="geometry"/>
                </mxCell>
                <mxCell id="413" value="Metodo di Pagamento" style="rounded=1;whiteSpace=wrap;html=1;fillColor=#6a00ff;strokeColor=#3700CC;" parent="1" vertex="1">
                    <mxGeometry x="-644" y="1870" width="120" height="60" as="geometry"/>
                </mxCell>
                <mxCell id="415" style="edgeStyle=orthogonalEdgeStyle;html=1;entryX=0.25;entryY=0;entryDx=0;entryDy=0;" parent="1" source="414" target="396" edge="1">
                    <mxGeometry relative="1" as="geometry"/>
                </mxCell>
                <mxCell id="414" value="Stato di Pagamento" style="rounded=1;whiteSpace=wrap;html=1;fillColor=#6a00ff;strokeColor=#3700CC;" parent="1" vertex="1">
                    <mxGeometry x="-640" y="1770" width="120" height="60" as="geometry"/>
                </mxCell>
                <mxCell id="417" value="1" style="text;html=1;align=center;verticalAlign=middle;resizable=0;points=[];autosize=1;strokeColor=none;fillColor=none;" parent="1" vertex="1">
                    <mxGeometry x="-670" y="1770" width="30" height="30" as="geometry"/>
                </mxCell>
                <mxCell id="418" value="1" style="text;html=1;align=center;verticalAlign=middle;resizable=0;points=[];autosize=1;strokeColor=none;fillColor=none;" parent="1" vertex="1">
                    <mxGeometry x="-1019.5" y="1915" width="30" height="30" as="geometry"/>
                </mxCell>
                <mxCell id="419" value="1" style="text;html=1;align=center;verticalAlign=middle;resizable=0;points=[];autosize=1;strokeColor=none;fillColor=none;" parent="1" vertex="1">
                    <mxGeometry x="-959" y="1915" width="30" height="30" as="geometry"/>
                </mxCell>
                <mxCell id="420" value="1" style="text;html=1;align=center;verticalAlign=middle;resizable=0;points=[];autosize=1;strokeColor=none;fillColor=none;" parent="1" vertex="1">
                    <mxGeometry x="-675.5" y="1870" width="30" height="30" as="geometry"/>
                </mxCell>
                <mxCell id="421" value="(lookup-table)" style="text;html=1;align=center;verticalAlign=middle;resizable=0;points=[];autosize=1;strokeColor=none;fillColor=none;" parent="1" vertex="1">
                    <mxGeometry x="-630" y="1740" width="100" height="30" as="geometry"/>
                </mxCell>
                <mxCell id="422" value="(lookup-table)" style="text;html=1;align=center;verticalAlign=middle;resizable=0;points=[];autosize=1;strokeColor=none;fillColor=none;" parent="1" vertex="1">
                    <mxGeometry x="-634" y="1837.5" width="100" height="30" as="geometry"/>
                </mxCell>
                <mxCell id="426" style="edgeStyle=orthogonalEdgeStyle;html=1;entryX=0.75;entryY=0;entryDx=0;entryDy=0;" parent="1" source="424" target="300" edge="1">
                    <mxGeometry relative="1" as="geometry"/>
                </mxCell>
                <mxCell id="424" value="di" style="shape=rhombus;double=1;perimeter=rhombusPerimeter;whiteSpace=wrap;html=1;align=center;rounded=1;fillColor=#0050ef;fontColor=#ffffff;strokeColor=#001DBC;" parent="1" vertex="1">
                    <mxGeometry x="-470.5" y="1945" width="120" height="60" as="geometry"/>
                </mxCell>
                <mxCell id="429" style="edgeStyle=orthogonalEdgeStyle;html=1;entryX=0.25;entryY=0;entryDx=0;entryDy=0;endArrow=classic;endFill=1;" parent="1" source="427" target="300" edge="1">
                    <mxGeometry relative="1" as="geometry"/>
                </mxCell>
                <mxCell id="427" value="di" style="shape=rhombus;double=1;perimeter=rhombusPerimeter;whiteSpace=wrap;html=1;align=center;rounded=1;fillColor=#0050ef;fontColor=#ffffff;strokeColor=#001DBC;" parent="1" vertex="1">
                    <mxGeometry x="-840" y="1945" width="120" height="60" as="geometry"/>
                </mxCell>
                <mxCell id="441" value="Schema scheletro operatore" style="text;strokeColor=none;fillColor=none;html=1;fontSize=24;fontStyle=1;verticalAlign=middle;align=center;" parent="1" vertex="1">
                    <mxGeometry x="1246" y="209" width="415.5" height="40" as="geometry"/>
                </mxCell>
                <mxCell id="444" value="Schema scheletro tecnico" style="text;strokeColor=none;fillColor=none;html=1;fontSize=24;fontStyle=1;verticalAlign=middle;align=center;" parent="1" vertex="1">
                    <mxGeometry x="-9" y="199" width="415.5" height="40" as="geometry"/>
                </mxCell>
                <mxCell id="445" value="Schema scheletro artista" style="text;strokeColor=none;fillColor=none;html=1;fontSize=24;fontStyle=1;verticalAlign=middle;align=center;" parent="1" vertex="1">
                    <mxGeometry x="-1100" y="29" width="415.5" height="40" as="geometry"/>
                </mxCell>
                <mxCell id="455" value="" style="edgeStyle=none;html=1;startArrow=classic;startFill=1;endArrow=none;endFill=0;" parent="1" source="456" target="461" edge="1">
                    <mxGeometry relative="1" as="geometry"/>
                </mxCell>
                <mxCell id="456" value="Produzione" style="rounded=1;whiteSpace=wrap;html=1;fillColor=#6a00ff;strokeColor=#3700CC;" parent="1" vertex="1">
                    <mxGeometry x="781" y="289" width="120" height="60" as="geometry"/>
                </mxCell>
                <mxCell id="457" style="edgeStyle=orthogonalEdgeStyle;rounded=1;orthogonalLoop=1;jettySize=auto;html=1;entryX=0;entryY=0.5;entryDx=0;entryDy=0;endArrow=none;endFill=0;" parent="1" source="458" target="463" edge="1">
                    <mxGeometry relative="1" as="geometry"/>
                </mxCell>
                <mxCell id="458" value="Artista" style="rounded=1;whiteSpace=wrap;html=1;fillColor=#6a00ff;strokeColor=#3700CC;" parent="1" vertex="1">
                    <mxGeometry x="-9" y="289" width="120" height="60" as="geometry"/>
                </mxCell>
                <mxCell id="459" value="" style="edgeStyle=none;html=1;endArrow=none;endFill=0;" parent="1" source="460" target="461" edge="1">
                    <mxGeometry relative="1" as="geometry"/>
                </mxCell>
                <mxCell id="460" value="Canzone" style="rounded=1;whiteSpace=wrap;html=1;fillColor=#6a00ff;strokeColor=#3700CC;" parent="1" vertex="1">
                    <mxGeometry x="361" y="289" width="120" height="60" as="geometry"/>
                </mxCell>
                <mxCell id="461" value="composizione" style="shape=rhombus;double=1;perimeter=rhombusPerimeter;whiteSpace=wrap;html=1;align=center;rounded=1;fillColor=#0050ef;fontColor=#ffffff;strokeColor=#001DBC;" parent="1" vertex="1">
                    <mxGeometry x="545" y="289" width="140" height="60" as="geometry"/>
                </mxCell>
                <mxCell id="462" style="edgeStyle=orthogonalEdgeStyle;rounded=1;orthogonalLoop=1;jettySize=auto;html=1;entryX=0;entryY=0.5;entryDx=0;entryDy=0;" parent="1" source="463" target="460" edge="1">
                    <mxGeometry relative="1" as="geometry"/>
                </mxCell>
                <mxCell id="463" value="partecipazione" style="shape=rhombus;double=1;perimeter=rhombusPerimeter;whiteSpace=wrap;html=1;align=center;rounded=1;fillColor=#0050ef;fontColor=#ffffff;strokeColor=#001DBC;" parent="1" vertex="1">
                    <mxGeometry x="161" y="289" width="140" height="60" as="geometry"/>
                </mxCell>
                <mxCell id="477" value="Cliente" style="rounded=1;whiteSpace=wrap;html=1;fillColor=#6a00ff;strokeColor=#3700CC;fontColor=#ffffff;" parent="1" vertex="1">
                    <mxGeometry x="1236" y="401.5" width="120" height="60" as="geometry"/>
                </mxCell>
                <mxCell id="478" value="" style="edgeStyle=orthogonalEdgeStyle;html=1;endArrow=none;endFill=0;" parent="1" source="480" target="477" edge="1">
                    <mxGeometry relative="1" as="geometry"/>
                </mxCell>
                <mxCell id="479" value="" style="edgeStyle=orthogonalEdgeStyle;html=1;" parent="1" source="480" target="481" edge="1">
                    <mxGeometry relative="1" as="geometry"/>
                </mxCell>
                <mxCell id="480" value="effettua" style="shape=rhombus;double=1;perimeter=rhombusPerimeter;whiteSpace=wrap;html=1;align=center;rounded=1;fillColor=#0050ef;fontColor=#ffffff;strokeColor=#001DBC;" parent="1" vertex="1">
                    <mxGeometry x="1416" y="401.5" width="120" height="60" as="geometry"/>
                </mxCell>
                <mxCell id="481" value="Prenotazione" style="rounded=1;whiteSpace=wrap;html=1;fillColor=#6a00ff;strokeColor=#3700CC;" parent="1" vertex="1">
                    <mxGeometry x="1607.5" y="401.5" width="120" height="60" as="geometry"/>
                </mxCell>
                <mxCell id="482" value="Sala" style="rounded=1;whiteSpace=wrap;html=1;fillColor=#6a00ff;strokeColor=#3700CC;fontColor=#ffffff;" parent="1" vertex="1">
                    <mxGeometry x="1956" y="401.5" width="120" height="60" as="geometry"/>
                </mxCell>
                <mxCell id="483" style="edgeStyle=none;html=1;entryX=1;entryY=0.5;entryDx=0;entryDy=0;" parent="1" source="485" target="481" edge="1">
                    <mxGeometry relative="1" as="geometry"/>
                </mxCell>
                <mxCell id="484" value="" style="edgeStyle=none;html=1;endArrow=none;endFill=0;" parent="1" source="485" target="482" edge="1">
                    <mxGeometry relative="1" as="geometry"/>
                </mxCell>
                <mxCell id="485" value="di" style="shape=rhombus;double=1;perimeter=rhombusPerimeter;whiteSpace=wrap;html=1;align=center;rounded=1;fillColor=#0050ef;fontColor=#ffffff;strokeColor=#001DBC;" parent="1" vertex="1">
                    <mxGeometry x="1786" y="401.5" width="120" height="60" as="geometry"/>
                </mxCell>
                <mxCell id="486" style="edgeStyle=orthogonalEdgeStyle;html=1;entryX=0;entryY=0.5;entryDx=0;entryDy=0;endArrow=none;endFill=0;" parent="1" source="487" target="513" edge="1">
                    <mxGeometry relative="1" as="geometry"/>
                </mxCell>
                <mxCell id="487" value="Pagamento" style="rounded=1;whiteSpace=wrap;html=1;fillColor=#6a00ff;strokeColor=#3700CC;" parent="1" vertex="1">
                    <mxGeometry x="1236" y="289" width="120" height="60" as="geometry"/>
                </mxCell>
                <mxCell id="512" style="edgeStyle=orthogonalEdgeStyle;html=1;entryX=0.25;entryY=0;entryDx=0;entryDy=0;endArrow=classic;endFill=1;" parent="1" source="513" target="481" edge="1">
                    <mxGeometry relative="1" as="geometry"/>
                </mxCell>
                <mxCell id="513" value="di" style="shape=rhombus;double=1;perimeter=rhombusPerimeter;whiteSpace=wrap;html=1;align=center;rounded=1;fillColor=#0050ef;fontColor=#ffffff;strokeColor=#001DBC;" parent="1" vertex="1">
                    <mxGeometry x="1416" y="289" width="120" height="60" as="geometry"/>
                </mxCell>
                <mxCell id="519" value="L'operatore ha il compito di supervisionare lo stato di pagamento delle varie prenotazioni, ha il diritto di potere cancellare una prenotazione se un cliente è recidivo inseguito a mancato pagamento dopo tre richiami da parte dell'operatore.&amp;nbsp;&lt;br&gt;Una prenotazione ha associato uno&amp;nbsp; e uno solo pagamente (non offriamo un servizio di pagamento a rate). Un pagamento fa riferimento ha una e una sola prenotazione." style="text;html=1;whiteSpace=wrap;strokeColor=none;fillColor=none;overflow=fill;fontSize=12;" parent="1" vertex="1">
                    <mxGeometry x="1246" y="570.5" width="970" height="72" as="geometry"/>
                </mxCell>
                <mxCell id="520" value="Una prenotazione ha associato uno&amp;nbsp; e uno solo pagamente (non offriamo un servizio di pagamento a rate). Un pagamento fa riferimento ha una e una sola prenotazione." style="text;html=1;whiteSpace=wrap;strokeColor=none;fillColor=none;overflow=fill;fontSize=12;" parent="1" vertex="1">
                    <mxGeometry x="-1050.5" y="1717.5" width="970" height="12.5" as="geometry"/>
                </mxCell>
                <mxCell id="522" value="Con il termine produzione intendiamo un entità che rappresenta da una canzone a n canzoni ed è un alias per il termine collezione.&lt;br&gt;&lt;br&gt;Il tecnico dopo aver ricevuto l'approvazione del producer si deve occupare di inserire i dati relativi alle canzoni e di metterli nella collezione di cui fanno parte.&lt;br&gt;Il tecnico attraverso un apposita sezione del sito web può controllare gli strumenti posseduti dagli artisti per poter scegliere correttamente le attrezzature della sala più adatta ad ottenere la miglior qualità possibile&lt;br&gt;." style="text;html=1;whiteSpace=wrap;strokeColor=none;fillColor=none;overflow=fill;fontSize=12;" parent="1" vertex="1">
                    <mxGeometry x="-9" y="389" width="970" height="80" as="geometry"/>
                </mxCell>
                <mxCell id="552" value="" style="edgeStyle=none;html=1;startArrow=classic;startFill=1;endArrow=none;endFill=0;" parent="1" source="553" target="558" edge="1">
                    <mxGeometry relative="1" as="geometry"/>
                </mxCell>
                <mxCell id="553" value="Tecnico" style="rounded=1;whiteSpace=wrap;html=1;fillColor=#6a00ff;strokeColor=#3700CC;" parent="1" vertex="1">
                    <mxGeometry x="411.5" y="499" width="120" height="60" as="geometry"/>
                </mxCell>
                <mxCell id="556" value="" style="edgeStyle=none;html=1;" parent="1" source="557" target="558" edge="1">
                    <mxGeometry relative="1" as="geometry"/>
                </mxCell>
                <mxCell id="557" value="Sala" style="rounded=1;whiteSpace=wrap;html=1;fillColor=#6a00ff;strokeColor=#3700CC;" parent="1" vertex="1">
                    <mxGeometry x="-8.5" y="499" width="120" height="60" as="geometry"/>
                </mxCell>
                <mxCell id="558" value="appartenuta" style="shape=rhombus;double=1;perimeter=rhombusPerimeter;whiteSpace=wrap;html=1;align=center;rounded=1;fillColor=#0050ef;fontColor=#ffffff;strokeColor=#001DBC;" parent="1" vertex="1">
                    <mxGeometry x="175.5" y="499" width="140" height="60" as="geometry"/>
                </mxCell>
                <mxCell id="561" value="" style="edgeStyle=none;html=1;startArrow=none;startFill=0;endArrow=classic;endFill=1;exitX=0;exitY=0.5;exitDx=0;exitDy=0;" parent="1" source="562" edge="1">
                    <mxGeometry relative="1" as="geometry">
                        <mxPoint x="901" y="319" as="targetPoint"/>
                        <mxPoint x="971" y="319" as="sourcePoint"/>
                    </mxGeometry>
                </mxCell>
                <mxCell id="562" value="Tecnico" style="rounded=1;whiteSpace=wrap;html=1;fillColor=#6a00ff;strokeColor=#3700CC;" parent="1" vertex="1">
                    <mxGeometry x="971" y="289" width="120" height="60" as="geometry"/>
                </mxCell>
                <mxCell id="567" value="&lt;div style=&quot;text-align: center;&quot;&gt;Ogni tecnica ha una e una sola sala&lt;/div&gt;Un fonico può essere assegnato a uno o più progetti.&amp;nbsp;" style="text;html=1;whiteSpace=wrap;strokeColor=none;fillColor=none;overflow=fill;fontSize=12;" parent="1" vertex="1">
                    <mxGeometry x="-8.5" y="590" width="970" height="89" as="geometry"/>
                </mxCell>
                <mxCell id="568" value="Artista" style="rounded=1;whiteSpace=wrap;html=1;fillColor=#6a00ff;strokeColor=#3700CC;fontColor=#ffffff;" parent="1" vertex="1">
                    <mxGeometry x="-1120" y="261.5" width="120" height="60" as="geometry"/>
                </mxCell>
                <mxCell id="569" value="" style="edgeStyle=orthogonalEdgeStyle;html=1;endArrow=none;endFill=0;" parent="1" source="571" target="568" edge="1">
                    <mxGeometry relative="1" as="geometry"/>
                </mxCell>
                <mxCell id="570" value="" style="edgeStyle=orthogonalEdgeStyle;html=1;" parent="1" source="571" target="572" edge="1">
                    <mxGeometry relative="1" as="geometry"/>
                </mxCell>
                <mxCell id="571" value="effettua" style="shape=rhombus;double=1;perimeter=rhombusPerimeter;whiteSpace=wrap;html=1;align=center;rounded=1;fillColor=#0050ef;fontColor=#ffffff;strokeColor=#001DBC;" parent="1" vertex="1">
                    <mxGeometry x="-940" y="261.5" width="120" height="60" as="geometry"/>
                </mxCell>
                <mxCell id="572" value="Prenotazione" style="rounded=1;whiteSpace=wrap;html=1;fillColor=#6a00ff;strokeColor=#3700CC;" parent="1" vertex="1">
                    <mxGeometry x="-748.5" y="261.5" width="120" height="60" as="geometry"/>
                </mxCell>
                <mxCell id="573" value="Sala" style="rounded=1;whiteSpace=wrap;html=1;fillColor=#6a00ff;strokeColor=#3700CC;fontColor=#ffffff;" parent="1" vertex="1">
                    <mxGeometry x="-400" y="261.5" width="120" height="60" as="geometry"/>
                </mxCell>
                <mxCell id="574" style="edgeStyle=none;html=1;entryX=1;entryY=0.5;entryDx=0;entryDy=0;" parent="1" source="576" target="572" edge="1">
                    <mxGeometry relative="1" as="geometry"/>
                </mxCell>
                <mxCell id="575" value="" style="edgeStyle=none;html=1;endArrow=none;endFill=0;" parent="1" source="576" target="573" edge="1">
                    <mxGeometry relative="1" as="geometry"/>
                </mxCell>
                <mxCell id="576" value="di" style="shape=rhombus;double=1;perimeter=rhombusPerimeter;whiteSpace=wrap;html=1;align=center;rounded=1;fillColor=#0050ef;fontColor=#ffffff;strokeColor=#001DBC;" parent="1" vertex="1">
                    <mxGeometry x="-570" y="261.5" width="120" height="60" as="geometry"/>
                </mxCell>
                <mxCell id="577" style="edgeStyle=orthogonalEdgeStyle;html=1;entryX=0;entryY=0.5;entryDx=0;entryDy=0;endArrow=none;endFill=0;" parent="1" source="578" target="595" edge="1">
                    <mxGeometry relative="1" as="geometry"/>
                </mxCell>
                <mxCell id="578" value="Pagamento" style="rounded=1;whiteSpace=wrap;html=1;fillColor=#6a00ff;strokeColor=#3700CC;" parent="1" vertex="1">
                    <mxGeometry x="-1119.5" y="149" width="120" height="60" as="geometry"/>
                </mxCell>
                <mxCell id="594" style="edgeStyle=orthogonalEdgeStyle;html=1;entryX=0.25;entryY=0;entryDx=0;entryDy=0;endArrow=classic;endFill=1;" parent="1" source="595" target="572" edge="1">
                    <mxGeometry relative="1" as="geometry"/>
                </mxCell>
                <mxCell id="595" value="di" style="shape=rhombus;double=1;perimeter=rhombusPerimeter;whiteSpace=wrap;html=1;align=center;rounded=1;fillColor=#0050ef;fontColor=#ffffff;strokeColor=#001DBC;" parent="1" vertex="1">
                    <mxGeometry x="-940" y="149" width="120" height="60" as="geometry"/>
                </mxCell>
                <mxCell id="600" value="Artista" style="rounded=1;whiteSpace=wrap;html=1;fillColor=#6a00ff;strokeColor=#3700CC;" parent="1" vertex="1">
                    <mxGeometry x="-1115" y="439" width="120" height="60" as="geometry"/>
                </mxCell>
                <mxCell id="641" value="" style="edgeStyle=none;html=1;" parent="1" source="622" target="625" edge="1">
                    <mxGeometry relative="1" as="geometry"/>
                </mxCell>
                <mxCell id="622" value="suona" style="shape=rhombus;double=1;perimeter=rhombusPerimeter;whiteSpace=wrap;html=1;align=center;rounded=1;fillColor=#0050ef;fontColor=#ffffff;strokeColor=#001DBC;" parent="1" vertex="1">
                    <mxGeometry x="-901" y="439" width="140" height="60" as="geometry"/>
                </mxCell>
                <mxCell id="625" value="Strumento" style="rounded=1;whiteSpace=wrap;html=1;fillColor=#6a00ff;strokeColor=#3700CC;" parent="1" vertex="1">
                    <mxGeometry x="-657" y="439" width="120" height="60" as="geometry"/>
                </mxCell>
                <mxCell id="642" value="" style="edgeStyle=orthogonalEdgeStyle;html=1;endArrow=none;endFill=0;exitX=0.026;exitY=0.502;exitDx=0;exitDy=0;exitPerimeter=0;" parent="1" source="622" target="600" edge="1">
                    <mxGeometry relative="1" as="geometry">
                        <mxPoint x="-925" y="327.5" as="sourcePoint"/>
                        <mxPoint x="-985" y="327.5" as="targetPoint"/>
                        <Array as="points"/>
                    </mxGeometry>
                </mxCell>
                <mxCell id="643" value="Un artista può effettuare una o più prenotazioni di una o più sale. Attraverso un apposita sezione della sito web si potrà scegliere il metodo di pagamento e pagare. In un altra sezione è possibile visionare lo stato dei pagamenti di ogni prenotazione ed effettuarne delle stampe." style="text;html=1;whiteSpace=wrap;strokeColor=none;fillColor=none;overflow=fill;fontSize=12;" parent="1" vertex="1">
                    <mxGeometry x="-1115" y="369" width="970" height="60" as="geometry"/>
                </mxCell>
                <mxCell id="644" value="Ogni artista possiede degli strumenti musicali che vengono registrati attraverso un apposito form" style="text;html=1;whiteSpace=wrap;strokeColor=none;fillColor=none;overflow=fill;fontSize=12;" parent="1" vertex="1">
                    <mxGeometry x="-1115" y="529" width="970" height="60" as="geometry"/>
                </mxCell>
                <mxCell id="648" value="Contatti" style="rounded=1;whiteSpace=wrap;html=1;fillColor=#6a00ff;strokeColor=#3700CC;" parent="1" vertex="1">
                    <mxGeometry x="-1119.5" y="619" width="120" height="60" as="geometry"/>
                </mxCell>
                <mxCell id="650" value="Ogni artista (? a capo del progetto? ) (cliente ma è vista di artista quindi non so come descriverlo) (non ha senso memorizzare la relazione artista-contatti visto che è una tabella fruibile sul sito e si contatterano tramite mail/telefono e nel momento in cui un contatto accetta di lavorare a un progetto viene inserito all'interno della lista di persone che lavorano al progetto.&lt;br&gt;&lt;br&gt;L'azienda mette a disposizione nel sito la proprià lista di contatti di producer e artisti che sono disposti a lavorare in dei progetti in modo che possano essere contattati tramite telefono o email dagli artisti che ne necessitano." style="text;html=1;whiteSpace=wrap;strokeColor=none;fillColor=none;overflow=fill;fontSize=12;" parent="1" vertex="1">
                    <mxGeometry x="-1120" y="709" width="970" height="90" as="geometry"/>
                </mxCell>
                <mxCell id="651" style="edgeStyle=none;html=1;startArrow=none;startFill=0;endArrow=none;endFill=0;" parent="1" source="656" edge="1">
                    <mxGeometry relative="1" as="geometry">
                        <mxPoint x="407.75" y="1170" as="targetPoint"/>
                    </mxGeometry>
                </mxCell>
                <mxCell id="652" value="" style="edgeStyle=none;html=1;endArrow=none;endFill=0;" parent="1" source="656" target="688" edge="1">
                    <mxGeometry relative="1" as="geometry"/>
                </mxCell>
                <mxCell id="653" value="" style="edgeStyle=none;html=1;endArrow=none;endFill=0;" parent="1" source="656" target="690" edge="1">
                    <mxGeometry relative="1" as="geometry"/>
                </mxCell>
                <mxCell id="654" style="edgeStyle=orthogonalEdgeStyle;html=1;entryX=0;entryY=0.5;entryDx=0;entryDy=0;endArrow=none;endFill=0;" parent="1" source="656" target="696" edge="1">
                    <mxGeometry relative="1" as="geometry"/>
                </mxCell>
                <mxCell id="655" value="1" style="edgeLabel;html=1;align=center;verticalAlign=middle;resizable=0;points=[];" parent="654" vertex="1" connectable="0">
                    <mxGeometry x="-0.7254" y="1" relative="1" as="geometry">
                        <mxPoint x="-11" y="-9" as="offset"/>
                    </mxGeometry>
                </mxCell>
                <mxCell id="656" value="Artist" style="rounded=1;whiteSpace=wrap;html=1;fillColor=#6a00ff;strokeColor=#3700CC;" parent="1" vertex="1">
                    <mxGeometry x="347.75" y="1070" width="120" height="60" as="geometry"/>
                </mxCell>
                <mxCell id="657" style="edgeStyle=none;html=1;startArrow=none;startFill=0;endArrow=none;endFill=0;entryX=0.5;entryY=0;entryDx=0;entryDy=0;" parent="1" source="659" target="665" edge="1">
                    <mxGeometry relative="1" as="geometry">
                        <mxPoint x="607.75" y="1170" as="targetPoint"/>
                        <Array as="points">
                            <mxPoint x="237.75" y="1170"/>
                            <mxPoint x="407.75" y="1170"/>
                            <mxPoint x="577.75" y="1170"/>
                        </Array>
                    </mxGeometry>
                </mxCell>
                <mxCell id="658" value="" style="edgeStyle=none;html=1;startArrow=none;startFill=0;endArrow=none;endFill=0;" parent="1" source="659" target="672" edge="1">
                    <mxGeometry relative="1" as="geometry"/>
                </mxCell>
                <mxCell id="659" value="Band" style="rounded=1;whiteSpace=wrap;html=1;fillColor=#6a00ff;strokeColor=#3700CC;" parent="1" vertex="1">
                    <mxGeometry x="178.25" y="1230" width="120" height="60" as="geometry"/>
                </mxCell>
                <mxCell id="660" value="" style="edgeStyle=none;html=1;startArrow=none;startFill=0;endArrow=none;endFill=0;exitX=1;exitY=0;exitDx=0;exitDy=0;" parent="1" source="665" edge="1">
                    <mxGeometry relative="1" as="geometry">
                        <mxPoint x="678.2500000000005" y="1180" as="targetPoint"/>
                    </mxGeometry>
                </mxCell>
                <mxCell id="661" style="edgeStyle=none;html=1;entryX=0.5;entryY=0;entryDx=0;entryDy=0;startArrow=none;startFill=0;endArrow=none;endFill=0;" parent="1" source="665" target="679" edge="1">
                    <mxGeometry relative="1" as="geometry"/>
                </mxCell>
                <mxCell id="662" value="M" style="edgeLabel;html=1;align=center;verticalAlign=middle;resizable=0;points=[];" parent="661" connectable="0" vertex="1">
                    <mxGeometry x="-0.6131" y="-2" relative="1" as="geometry">
                        <mxPoint x="12" as="offset"/>
                    </mxGeometry>
                </mxCell>
                <mxCell id="663" value="" style="edgeStyle=orthogonalEdgeStyle;html=1;endArrow=none;endFill=0;" parent="1" source="665" target="702" edge="1">
                    <mxGeometry relative="1" as="geometry"/>
                </mxCell>
                <mxCell id="664" value="N" style="edgeLabel;html=1;align=center;verticalAlign=middle;resizable=0;points=[];" parent="663" vertex="1" connectable="0">
                    <mxGeometry x="-0.6542" y="-1" relative="1" as="geometry">
                        <mxPoint x="-2" y="-11" as="offset"/>
                    </mxGeometry>
                </mxCell>
                <mxCell id="665" value="Solo Performer" style="rounded=1;whiteSpace=wrap;html=1;fillColor=#6a00ff;strokeColor=#3700CC;" parent="1" vertex="1">
                    <mxGeometry x="517.75" y="1230" width="120" height="60" as="geometry"/>
                </mxCell>
                <mxCell id="666" value="" style="edgeStyle=none;html=1;" parent="1" source="671" target="659" edge="1">
                    <mxGeometry relative="1" as="geometry"/>
                </mxCell>
                <mxCell id="667" value="M" style="edgeLabel;html=1;align=center;verticalAlign=middle;resizable=0;points=[];" parent="666" connectable="0" vertex="1">
                    <mxGeometry x="0.4132" relative="1" as="geometry">
                        <mxPoint x="-2" y="-10" as="offset"/>
                    </mxGeometry>
                </mxCell>
                <mxCell id="668" value="" style="edgeStyle=none;html=1;startArrow=none;startFill=0;endArrow=none;endFill=0;" parent="1" source="671" target="665" edge="1">
                    <mxGeometry relative="1" as="geometry"/>
                </mxCell>
                <mxCell id="669" value="N" style="edgeLabel;html=1;align=center;verticalAlign=middle;resizable=0;points=[];" parent="668" connectable="0" vertex="1">
                    <mxGeometry x="0.1686" relative="1" as="geometry">
                        <mxPoint x="7" y="-10" as="offset"/>
                    </mxGeometry>
                </mxCell>
                <mxCell id="670" value="" style="edgeStyle=none;html=1;startArrow=none;startFill=0;endArrow=none;endFill=0;" parent="1" source="671" target="673" edge="1">
                    <mxGeometry relative="1" as="geometry"/>
                </mxCell>
                <mxCell id="671" value="GroupManber" style="shape=rhombus;double=1;perimeter=rhombusPerimeter;whiteSpace=wrap;html=1;align=center;rounded=1;fillColor=#0050ef;fontColor=#ffffff;strokeColor=#001DBC;" parent="1" vertex="1">
                    <mxGeometry x="337.75" y="1230" width="140" height="60" as="geometry"/>
                </mxCell>
                <mxCell id="672" value="" style="shape=waypoint;size=6;pointerEvents=1;points=[];fillColor=#6a00ff;resizable=0;rotatable=0;perimeter=centerPerimeter;snapToPoint=1;strokeColor=#3700CC;rounded=1;" parent="1" vertex="1">
                    <mxGeometry x="117.75" y="1250" width="20" height="20" as="geometry"/>
                </mxCell>
                <mxCell id="673" value="" style="shape=waypoint;size=6;pointerEvents=1;points=[];fillColor=#0050ef;resizable=0;rotatable=0;perimeter=centerPerimeter;snapToPoint=1;strokeColor=#001DBC;fontColor=#ffffff;rounded=1;" parent="1" vertex="1">
                    <mxGeometry x="397.75" y="1330" width="20" height="20" as="geometry"/>
                </mxCell>
                <mxCell id="674" value="JoinedDate" style="text;html=1;align=center;verticalAlign=middle;resizable=0;points=[];autosize=1;strokeColor=none;fillColor=none;" parent="1" vertex="1">
                    <mxGeometry x="367.75" y="1350" width="80" height="30" as="geometry"/>
                </mxCell>
                <mxCell id="675" value="" style="shape=waypoint;size=6;pointerEvents=1;points=[];fillColor=#6a00ff;resizable=0;rotatable=0;perimeter=centerPerimeter;snapToPoint=1;strokeColor=#3700CC;rounded=1;" parent="1" vertex="1">
                    <mxGeometry x="668.25" y="1170" width="20" height="20" as="geometry"/>
                </mxCell>
                <mxCell id="676" value="BirthDate" style="text;html=1;align=center;verticalAlign=middle;resizable=0;points=[];autosize=1;strokeColor=none;fillColor=none;" parent="1" vertex="1">
                    <mxGeometry x="676.25" y="1165" width="70" height="30" as="geometry"/>
                </mxCell>
                <mxCell id="677" value="" style="edgeStyle=none;html=1;startArrow=none;startFill=0;endArrow=none;endFill=0;" parent="1" source="679" target="682" edge="1">
                    <mxGeometry relative="1" as="geometry"/>
                </mxCell>
                <mxCell id="678" value="N" style="edgeLabel;html=1;align=center;verticalAlign=middle;resizable=0;points=[];" parent="677" connectable="0" vertex="1">
                    <mxGeometry x="-0.3849" y="-2" relative="1" as="geometry">
                        <mxPoint x="12" y="14" as="offset"/>
                    </mxGeometry>
                </mxCell>
                <mxCell id="679" value="suonare" style="shape=rhombus;double=1;perimeter=rhombusPerimeter;whiteSpace=wrap;html=1;align=center;rounded=1;fillColor=#0050ef;fontColor=#ffffff;strokeColor=#001DBC;" parent="1" vertex="1">
                    <mxGeometry x="507.75" y="1335" width="140" height="60" as="geometry"/>
                </mxCell>
                <mxCell id="680" value="" style="edgeStyle=none;html=1;startArrow=none;startFill=0;endArrow=none;endFill=0;" parent="1" source="682" target="683" edge="1">
                    <mxGeometry relative="1" as="geometry"/>
                </mxCell>
                <mxCell id="681" value="" style="edgeStyle=none;html=1;startArrow=none;startFill=0;endArrow=none;endFill=0;" parent="1" source="682" target="684" edge="1">
                    <mxGeometry relative="1" as="geometry"/>
                </mxCell>
                <mxCell id="682" value="Instrument" style="rounded=1;whiteSpace=wrap;html=1;fillColor=#6a00ff;strokeColor=#3700CC;" parent="1" vertex="1">
                    <mxGeometry x="517.75" y="1430" width="120" height="60" as="geometry"/>
                </mxCell>
                <mxCell id="683" value="" style="shape=waypoint;size=6;pointerEvents=1;points=[];fillColor=#6a00ff;resizable=0;rotatable=0;perimeter=centerPerimeter;snapToPoint=1;strokeColor=#3700CC;rounded=1;" parent="1" vertex="1">
                    <mxGeometry x="567.75" y="1520" width="20" height="20" as="geometry"/>
                </mxCell>
                <mxCell id="684" value="" style="shape=waypoint;size=6;pointerEvents=1;points=[];fillColor=#6a00ff;resizable=0;rotatable=0;perimeter=centerPerimeter;snapToPoint=1;strokeColor=#3700CC;rounded=1;" parent="1" vertex="1">
                    <mxGeometry x="688.25" y="1450" width="20" height="20" as="geometry"/>
                </mxCell>
                <mxCell id="685" value="InstrumentNumber" style="text;html=1;align=center;verticalAlign=middle;resizable=0;points=[];autosize=1;strokeColor=none;fillColor=none;" parent="1" vertex="1">
                    <mxGeometry x="698.25" y="1445" width="120" height="30" as="geometry"/>
                </mxCell>
                <mxCell id="686" style="html=1;startArrow=none;startFill=0;endArrow=none;endFill=0;entryX=0.5;entryY=0;entryDx=0;entryDy=0;" parent="1" target="665" edge="1">
                    <mxGeometry relative="1" as="geometry">
                        <mxPoint x="577.75" y="1230" as="targetPoint"/>
                        <mxPoint x="578.2500000000005" y="1230" as="sourcePoint"/>
                    </mxGeometry>
                </mxCell>
                <mxCell id="687" value="(t,e)" style="text;html=1;align=center;verticalAlign=middle;resizable=0;points=[];autosize=1;strokeColor=none;fillColor=none;" parent="1" vertex="1">
                    <mxGeometry x="401.25" y="1140" width="40" height="30" as="geometry"/>
                </mxCell>
                <mxCell id="688" value="" style="shape=waypoint;sketch=0;size=6;pointerEvents=1;points=[];fillColor=#6a00ff;resizable=0;rotatable=0;perimeter=centerPerimeter;snapToPoint=1;strokeColor=#3700CC;rounded=1;gradientColor=#FF6666;" parent="1" vertex="1">
                    <mxGeometry x="397.75" y="1020" width="20" height="20" as="geometry"/>
                </mxCell>
                <mxCell id="689" value="ArtistNumber" style="text;html=1;align=center;verticalAlign=middle;resizable=0;points=[];autosize=1;strokeColor=none;fillColor=none;gradientColor=none;" parent="1" vertex="1">
                    <mxGeometry x="362.75" y="1000" width="90" height="30" as="geometry"/>
                </mxCell>
                <mxCell id="690" value="" style="shape=waypoint;sketch=0;size=6;pointerEvents=1;points=[];fillColor=#6a00ff;resizable=0;rotatable=0;perimeter=centerPerimeter;snapToPoint=1;strokeColor=#3700CC;rounded=1;" parent="1" vertex="1">
                    <mxGeometry x="288.75" y="1090" width="20" height="20" as="geometry"/>
                </mxCell>
                <mxCell id="691" value="Type" style="text;html=1;align=center;verticalAlign=middle;resizable=0;points=[];autosize=1;strokeColor=none;fillColor=none;" parent="1" vertex="1">
                    <mxGeometry x="248.25" y="1085" width="50" height="30" as="geometry"/>
                </mxCell>
                <mxCell id="692" value="" style="edgeStyle=orthogonalEdgeStyle;html=1;endArrow=none;endFill=0;" parent="1" source="693" target="699" edge="1">
                    <mxGeometry relative="1" as="geometry"/>
                </mxCell>
                <mxCell id="693" value="Produzione" style="rounded=1;whiteSpace=wrap;html=1;fillColor=#6a00ff;strokeColor=#3700CC;" parent="1" vertex="1">
                    <mxGeometry x="894.25" y="1070" width="120" height="60" as="geometry"/>
                </mxCell>
                <mxCell id="694" style="edgeStyle=orthogonalEdgeStyle;html=1;entryX=0;entryY=0.5;entryDx=0;entryDy=0;" parent="1" source="696" target="693" edge="1">
                    <mxGeometry relative="1" as="geometry"/>
                </mxCell>
                <mxCell id="695" value="M" style="edgeLabel;html=1;align=center;verticalAlign=middle;resizable=0;points=[];" parent="694" vertex="1" connectable="0">
                    <mxGeometry x="0.7304" relative="1" as="geometry">
                        <mxPoint x="2" y="-10" as="offset"/>
                    </mxGeometry>
                </mxCell>
                <mxCell id="696" value="conponimento" style="shape=rhombus;double=1;perimeter=rhombusPerimeter;whiteSpace=wrap;html=1;align=center;rounded=1;fillColor=#0050ef;fontColor=#ffffff;strokeColor=#001DBC;" parent="1" vertex="1">
                    <mxGeometry x="618.25" y="1070" width="140" height="60" as="geometry"/>
                </mxCell>
                <mxCell id="697" value="Canzone" style="rounded=1;whiteSpace=wrap;html=1;fillColor=#6a00ff;strokeColor=#3700CC;" parent="1" vertex="1">
                    <mxGeometry x="894.25" y="1230" width="120" height="60" as="geometry"/>
                </mxCell>
                <mxCell id="698" value="" style="edgeStyle=orthogonalEdgeStyle;html=1;endArrow=classic;endFill=1;" parent="1" source="699" target="697" edge="1">
                    <mxGeometry relative="1" as="geometry"/>
                </mxCell>
                <mxCell id="699" value="raccolta di" style="shape=rhombus;double=1;perimeter=rhombusPerimeter;whiteSpace=wrap;html=1;align=center;rounded=1;fillColor=#0050ef;fontColor=#ffffff;strokeColor=#001DBC;" parent="1" vertex="1">
                    <mxGeometry x="884.25" y="1150" width="140" height="60" as="geometry"/>
                </mxCell>
                <mxCell id="700" value="" style="edgeStyle=orthogonalEdgeStyle;html=1;endArrow=classic;endFill=1;" parent="1" source="702" target="697" edge="1">
                    <mxGeometry relative="1" as="geometry"/>
                </mxCell>
                <mxCell id="701" value="M" style="edgeLabel;html=1;align=center;verticalAlign=middle;resizable=0;points=[];" parent="700" vertex="1" connectable="0">
                    <mxGeometry x="0.5365" y="-1" relative="1" as="geometry">
                        <mxPoint x="-3" y="-11" as="offset"/>
                    </mxGeometry>
                </mxCell>
                <mxCell id="702" value="compare in" style="shape=rhombus;double=1;perimeter=rhombusPerimeter;whiteSpace=wrap;html=1;align=center;rounded=1;fillColor=#0050ef;fontColor=#ffffff;strokeColor=#001DBC;" parent="1" vertex="1">
                    <mxGeometry x="698.25" y="1230" width="140" height="60" as="geometry"/>
                </mxCell>
                <mxCell id="703" value="&lt;span style=&quot;color: rgb(240, 240, 240); font-family: Helvetica; font-size: 24px; font-style: normal; font-variant-ligatures: normal; font-variant-caps: normal; font-weight: 700; letter-spacing: normal; orphans: 2; text-align: center; text-indent: 0px; text-transform: none; widows: 2; word-spacing: 0px; -webkit-text-stroke-width: 0px; background-color: rgb(42, 37, 47); text-decoration-thickness: initial; text-decoration-style: initial; text-decoration-color: initial; float: none; display: inline !important;&quot;&gt;Contesto dell'artista e della band in relazione a produzione e canzone&lt;/span&gt;" style="text;whiteSpace=wrap;html=1;" parent="1" vertex="1">
                    <mxGeometry x="200" y="910" width="800" height="50" as="geometry"/>
                </mxCell>
                <mxCell id="704" value="Name" style="text;html=1;align=center;verticalAlign=middle;resizable=0;points=[];autosize=1;strokeColor=none;fillColor=none;" parent="1" vertex="1">
                    <mxGeometry x="546.25" y="1530" width="60" height="30" as="geometry"/>
                </mxCell>
                <mxCell id="707" value="" style="edgeStyle=none;html=1;startArrow=classic;startFill=1;endArrow=none;endFill=0;entryX=0.5;entryY=1;entryDx=0;entryDy=0;" parent="1" source="329" target="710" edge="1">
                    <mxGeometry relative="1" as="geometry">
                        <mxPoint x="-900.25" y="2895" as="sourcePoint"/>
                    </mxGeometry>
                </mxCell>
                <mxCell id="708" value="Canzone" style="rounded=1;whiteSpace=wrap;html=1;fillColor=#6a00ff;strokeColor=#3700CC;" parent="1" vertex="1">
                    <mxGeometry x="-960.25" y="2695" width="120" height="60" as="geometry"/>
                </mxCell>
                <mxCell id="709" style="edgeStyle=orthogonalEdgeStyle;rounded=1;orthogonalLoop=1;jettySize=auto;html=1;entryX=0.5;entryY=1;entryDx=0;entryDy=0;endArrow=none;endFill=0;" parent="1" source="710" target="708" edge="1">
                    <mxGeometry relative="1" as="geometry"/>
                </mxCell>
                <mxCell id="710" value="composizione" style="shape=rhombus;double=1;perimeter=rhombusPerimeter;whiteSpace=wrap;html=1;align=center;rounded=1;fillColor=#0050ef;fontColor=#ffffff;strokeColor=#001DBC;" parent="1" vertex="1">
                    <mxGeometry x="-970.25" y="2795" width="140" height="60" as="geometry"/>
                </mxCell>
                <mxCell id="711" value="Operatore" style="rounded=1;whiteSpace=wrap;html=1;fillColor=#6a00ff;strokeColor=#3700CC;fontColor=#ffffff;" parent="1" vertex="1">
                    <mxGeometry x="1236.5" y="489" width="120" height="60" as="geometry"/>
                </mxCell>
                <mxCell id="712" value="" style="edgeStyle=orthogonalEdgeStyle;html=1;endArrow=none;endFill=0;" parent="1" source="714" target="711" edge="1">
                    <mxGeometry relative="1" as="geometry"/>
                </mxCell>
                <mxCell id="713" value="" style="edgeStyle=orthogonalEdgeStyle;html=1;entryX=0.25;entryY=1;entryDx=0;entryDy=0;" parent="1" source="714" target="481" edge="1">
                    <mxGeometry relative="1" as="geometry">
                        <mxPoint x="1626" y="519" as="targetPoint"/>
                    </mxGeometry>
                </mxCell>
                <mxCell id="714" value="visualizza" style="shape=rhombus;double=1;perimeter=rhombusPerimeter;whiteSpace=wrap;html=1;align=center;rounded=1;fillColor=#0050ef;fontColor=#ffffff;strokeColor=#001DBC;" parent="1" vertex="1">
                    <mxGeometry x="1416.5" y="489" width="120" height="60" as="geometry"/>
                </mxCell>
                <mxCell id="715" value="Una produzione può essere composta da un solo artista" style="text;html=1;align=center;verticalAlign=middle;resizable=0;points=[];autosize=1;strokeColor=none;fillColor=none;" parent="1" vertex="1">
                    <mxGeometry x="526" y="1020" width="320" height="30" as="geometry"/>
                </mxCell>
                <mxCell id="716" value="Ci possono essere dei musicisti che compaiono in una canzone ma non all'intero album" style="text;html=1;align=center;verticalAlign=middle;resizable=0;points=[];autosize=1;strokeColor=none;fillColor=none;" parent="1" vertex="1">
                    <mxGeometry x="626" y="1310" width="490" height="30" as="geometry"/>
                </mxCell>
                <mxCell id="839" style="edgeStyle=none;html=1;startArrow=none;startFill=0;endArrow=none;endFill=0;" parent="1" source="841" edge="1">
                    <mxGeometry relative="1" as="geometry">
                        <mxPoint x="547.5" y="2060" as="targetPoint"/>
                    </mxGeometry>
                </mxCell>
                <mxCell id="840" value="" style="edgeStyle=none;html=1;endArrow=none;endFill=0;exitX=1;exitY=0;exitDx=0;exitDy=0;" parent="1" source="844" target="853" edge="1">
                    <mxGeometry relative="1" as="geometry">
                        <mxPoint x="787.5000000000005" y="2125" as="sourcePoint"/>
                    </mxGeometry>
                </mxCell>
                <mxCell id="841" value="Prenotazione" style="rounded=1;whiteSpace=wrap;html=1;fillColor=#6a00ff;strokeColor=#3700CC;" parent="1" vertex="1">
                    <mxGeometry x="487.5" y="1960" width="120" height="60" as="geometry"/>
                </mxCell>
                <mxCell id="842" style="edgeStyle=none;html=1;startArrow=none;startFill=0;endArrow=none;endFill=0;entryX=0.5;entryY=0;entryDx=0;entryDy=0;" parent="1" source="843" target="844" edge="1">
                    <mxGeometry relative="1" as="geometry">
                        <mxPoint x="747.5" y="2060" as="targetPoint"/>
                        <Array as="points">
                            <mxPoint x="377.5" y="2060"/>
                            <mxPoint x="547.5" y="2060"/>
                            <mxPoint x="717.5" y="2060"/>
                        </Array>
                    </mxGeometry>
                </mxCell>
                <mxCell id="843" value="Prenotazione a giorni Staccati" style="rounded=1;whiteSpace=wrap;html=1;fillColor=#6a00ff;strokeColor=#3700CC;" parent="1" vertex="1">
                    <mxGeometry x="318" y="2120" width="120" height="60" as="geometry"/>
                </mxCell>
                <mxCell id="844" value="Prenotazione Oraria" style="rounded=1;whiteSpace=wrap;html=1;fillColor=#6a00ff;strokeColor=#3700CC;" parent="1" vertex="1">
                    <mxGeometry x="657.5" y="2120" width="120" height="60" as="geometry"/>
                </mxCell>
                <mxCell id="845" value="" style="edgeStyle=none;html=1;" parent="1" source="849" target="843" edge="1">
                    <mxGeometry relative="1" as="geometry"/>
                </mxCell>
                <mxCell id="846" value="M" style="edgeLabel;html=1;align=center;verticalAlign=middle;resizable=0;points=[];" parent="845" connectable="0" vertex="1">
                    <mxGeometry x="0.4132" relative="1" as="geometry">
                        <mxPoint x="-2" y="-10" as="offset"/>
                    </mxGeometry>
                </mxCell>
                <mxCell id="847" value="" style="edgeStyle=none;html=1;startArrow=none;startFill=0;endArrow=none;endFill=0;" parent="1" source="849" target="844" edge="1">
                    <mxGeometry relative="1" as="geometry"/>
                </mxCell>
                <mxCell id="848" value="N" style="edgeLabel;html=1;align=center;verticalAlign=middle;resizable=0;points=[];" parent="847" connectable="0" vertex="1">
                    <mxGeometry x="0.1686" relative="1" as="geometry">
                        <mxPoint x="7" y="-10" as="offset"/>
                    </mxGeometry>
                </mxCell>
                <mxCell id="849" value="Part of" style="shape=rhombus;double=1;perimeter=rhombusPerimeter;whiteSpace=wrap;html=1;align=center;rounded=1;fillColor=#0050ef;fontColor=#ffffff;strokeColor=#001DBC;" parent="1" vertex="1">
                    <mxGeometry x="477.5" y="2120" width="140" height="60" as="geometry"/>
                </mxCell>
                <mxCell id="850" style="html=1;startArrow=none;startFill=0;endArrow=none;endFill=0;entryX=0.5;entryY=0;entryDx=0;entryDy=0;" parent="1" target="844" edge="1">
                    <mxGeometry relative="1" as="geometry">
                        <mxPoint x="717.5" y="2120" as="targetPoint"/>
                        <mxPoint x="718.0000000000009" y="2120" as="sourcePoint"/>
                    </mxGeometry>
                </mxCell>
                <mxCell id="851" value="(t,e)" style="text;html=1;align=center;verticalAlign=middle;resizable=0;points=[];autosize=1;strokeColor=none;fillColor=none;" parent="1" vertex="1">
                    <mxGeometry x="541" y="2030" width="40" height="30" as="geometry"/>
                </mxCell>
                <mxCell id="852" value="Data Prenotazione" style="text;html=1;align=center;verticalAlign=middle;resizable=0;points=[];autosize=1;strokeColor=none;fillColor=none;" parent="1" vertex="1">
                    <mxGeometry x="318" y="1975" width="120" height="30" as="geometry"/>
                </mxCell>
                <mxCell id="853" value="" style="shape=waypoint;sketch=0;size=6;pointerEvents=1;points=[];fillColor=#6a00ff;resizable=0;rotatable=0;perimeter=centerPerimeter;snapToPoint=1;strokeColor=#3700CC;rounded=1;" parent="1" vertex="1">
                    <mxGeometry x="828" y="2110" width="20" height="20" as="geometry"/>
                </mxCell>
                <mxCell id="854" value="Contesto della prenotazione 1" style="text;strokeColor=none;fillColor=none;html=1;fontSize=24;fontStyle=1;verticalAlign=middle;align=center;" parent="1" vertex="1">
                    <mxGeometry x="359.75" y="1770" width="415.5" height="40" as="geometry"/>
                </mxCell>
                <mxCell id="855" value="" style="edgeStyle=none;html=1;startArrow=none;startFill=0;endArrow=none;endFill=0;" parent="1" target="856" edge="1">
                    <mxGeometry relative="1" as="geometry">
                        <mxPoint x="777.5" y="2150" as="sourcePoint"/>
                    </mxGeometry>
                </mxCell>
                <mxCell id="856" value="" style="shape=waypoint;size=6;pointerEvents=1;points=[];fillColor=#6a00ff;resizable=0;rotatable=0;perimeter=centerPerimeter;snapToPoint=1;strokeColor=#3700CC;rounded=1;" parent="1" vertex="1">
                    <mxGeometry x="828" y="2140" width="20" height="20" as="geometry"/>
                </mxCell>
                <mxCell id="857" value="Orario Inizio" style="text;html=1;align=center;verticalAlign=middle;resizable=0;points=[];autosize=1;strokeColor=none;fillColor=none;" parent="1" vertex="1">
                    <mxGeometry x="838" y="2135" width="90" height="30" as="geometry"/>
                </mxCell>
                <mxCell id="858" value="" style="edgeStyle=none;html=1;startArrow=none;startFill=0;endArrow=none;endFill=0;exitX=1;exitY=1;exitDx=0;exitDy=0;" parent="1" source="844" target="859" edge="1">
                    <mxGeometry relative="1" as="geometry">
                        <mxPoint x="777.5" y="2175" as="sourcePoint"/>
                    </mxGeometry>
                </mxCell>
                <mxCell id="859" value="" style="shape=waypoint;size=6;pointerEvents=1;points=[];fillColor=#6a00ff;resizable=0;rotatable=0;perimeter=centerPerimeter;snapToPoint=1;strokeColor=#3700CC;rounded=1;" parent="1" vertex="1">
                    <mxGeometry x="828" y="2170" width="20" height="20" as="geometry"/>
                </mxCell>
                <mxCell id="860" value="Orario Fine" style="text;html=1;align=center;verticalAlign=middle;resizable=0;points=[];autosize=1;strokeColor=none;fillColor=none;" parent="1" vertex="1">
                    <mxGeometry x="838" y="2165" width="80" height="30" as="geometry"/>
                </mxCell>
                <mxCell id="861" value="" style="edgeStyle=none;html=1;endArrow=none;endFill=0;" parent="1" target="862" edge="1">
                    <mxGeometry relative="1" as="geometry">
                        <mxPoint x="487.5" y="1990" as="sourcePoint"/>
                    </mxGeometry>
                </mxCell>
                <mxCell id="862" value="" style="shape=waypoint;sketch=0;size=6;pointerEvents=1;points=[];fillColor=#6a00ff;resizable=0;rotatable=0;perimeter=centerPerimeter;snapToPoint=1;strokeColor=#3700CC;rounded=1;" parent="1" vertex="1">
                    <mxGeometry x="428.5" y="1980" width="20" height="20" as="geometry"/>
                </mxCell>
                <mxCell id="863" value="Giorno" style="text;html=1;align=center;verticalAlign=middle;resizable=0;points=[];autosize=1;strokeColor=none;fillColor=none;" parent="1" vertex="1">
                    <mxGeometry x="838" y="2105" width="60" height="30" as="geometry"/>
                </mxCell>
                <mxCell id="864" style="edgeStyle=orthogonalEdgeStyle;html=1;entryX=0;entryY=0.5;entryDx=0;entryDy=0;endArrow=none;endFill=0;" parent="1" source="865" target="869" edge="1">
                    <mxGeometry relative="1" as="geometry"/>
                </mxCell>
                <mxCell id="865" value="Pagamento" style="rounded=1;whiteSpace=wrap;html=1;fillColor=#6a00ff;strokeColor=#3700CC;" parent="1" vertex="1">
                    <mxGeometry x="150" y="1847.5" width="120" height="60" as="geometry"/>
                </mxCell>
                <mxCell id="866" value="0" style="text;html=1;align=center;verticalAlign=middle;resizable=0;points=[];autosize=1;strokeColor=none;fillColor=none;" parent="1" vertex="1">
                    <mxGeometry x="270" y="1847.5" width="30" height="30" as="geometry"/>
                </mxCell>
                <mxCell id="867" value="1" style="text;html=1;align=center;verticalAlign=middle;resizable=0;points=[];autosize=1;strokeColor=none;fillColor=none;" parent="1" vertex="1">
                    <mxGeometry x="551" y="1930" width="30" height="30" as="geometry"/>
                </mxCell>
                <mxCell id="868" style="edgeStyle=orthogonalEdgeStyle;html=1;entryX=0.25;entryY=0;entryDx=0;entryDy=0;endArrow=classic;endFill=1;" parent="1" source="869" edge="1">
                    <mxGeometry relative="1" as="geometry">
                        <mxPoint x="550.9999999999991" y="1960" as="targetPoint"/>
                    </mxGeometry>
                </mxCell>
                <mxCell id="869" value="di" style="shape=rhombus;double=1;perimeter=rhombusPerimeter;whiteSpace=wrap;html=1;align=center;rounded=1;fillColor=#0050ef;fontColor=#ffffff;strokeColor=#001DBC;" parent="1" vertex="1">
                    <mxGeometry x="345" y="1847.5" width="120" height="60" as="geometry"/>
                </mxCell>
                <mxCell id="871" value="" style="edgeStyle=none;html=1;endArrow=none;endFill=0;exitX=1;exitY=0;exitDx=0;exitDy=0;" parent="1" source="875" target="884" edge="1">
                    <mxGeometry relative="1" as="geometry">
                        <mxPoint x="1976.5000000000005" y="2010.63" as="sourcePoint"/>
                    </mxGeometry>
                </mxCell>
                <mxCell id="872" value="Prenotazione" style="rounded=1;whiteSpace=wrap;html=1;fillColor=#6a00ff;strokeColor=#3700CC;" parent="1" vertex="1">
                    <mxGeometry x="1616.5" y="1968.75" width="120" height="60" as="geometry"/>
                </mxCell>
                <mxCell id="875" value="Prenotazione Oraria" style="rounded=1;whiteSpace=wrap;html=1;fillColor=#6a00ff;strokeColor=#3700CC;" parent="1" vertex="1">
                    <mxGeometry x="1616.5" y="2205.63" width="120" height="60" as="geometry"/>
                </mxCell>
                <mxCell id="878" value="" style="edgeStyle=none;html=1;startArrow=none;startFill=0;endArrow=none;endFill=0;" parent="1" source="880" target="875" edge="1">
                    <mxGeometry relative="1" as="geometry"/>
                </mxCell>
                <mxCell id="879" value="N" style="edgeLabel;html=1;align=center;verticalAlign=middle;resizable=0;points=[];" parent="878" connectable="0" vertex="1">
                    <mxGeometry x="0.1686" relative="1" as="geometry">
                        <mxPoint x="7" y="-10" as="offset"/>
                    </mxGeometry>
                </mxCell>
                <mxCell id="876" value="" style="edgeStyle=none;html=1;entryX=0.5;entryY=1;entryDx=0;entryDy=0;" parent="1" source="880" target="872" edge="1">
                    <mxGeometry relative="1" as="geometry">
                        <mxPoint x="1567" y="2158.75" as="targetPoint"/>
                    </mxGeometry>
                </mxCell>
                <mxCell id="877" value="1" style="edgeLabel;html=1;align=center;verticalAlign=middle;resizable=0;points=[];" parent="876" connectable="0" vertex="1">
                    <mxGeometry x="0.4132" relative="1" as="geometry">
                        <mxPoint x="19" y="-5" as="offset"/>
                    </mxGeometry>
                </mxCell>
                <mxCell id="880" value="Part of" style="shape=rhombus;double=1;perimeter=rhombusPerimeter;whiteSpace=wrap;html=1;align=center;rounded=1;fillColor=#0050ef;fontColor=#ffffff;strokeColor=#001DBC;" parent="1" vertex="1">
                    <mxGeometry x="1606.5" y="2079.38" width="140" height="60" as="geometry"/>
                </mxCell>
                <mxCell id="883" value="Data Prenotazione" style="text;html=1;align=center;verticalAlign=middle;resizable=0;points=[];autosize=1;strokeColor=none;fillColor=none;" parent="1" vertex="1">
                    <mxGeometry x="1447" y="1983.75" width="120" height="30" as="geometry"/>
                </mxCell>
                <mxCell id="884" value="" style="shape=waypoint;sketch=0;size=6;pointerEvents=1;points=[];fillColor=#6a00ff;resizable=0;rotatable=0;perimeter=centerPerimeter;snapToPoint=1;strokeColor=#3700CC;rounded=1;" parent="1" vertex="1">
                    <mxGeometry x="1789.5" y="2195.63" width="20" height="20" as="geometry"/>
                </mxCell>
                <mxCell id="885" value="" style="edgeStyle=none;html=1;startArrow=none;startFill=0;endArrow=none;endFill=0;exitX=1;exitY=0.5;exitDx=0;exitDy=0;" parent="1" source="875" target="886" edge="1">
                    <mxGeometry relative="1" as="geometry">
                        <mxPoint x="1740" y="2236.88" as="sourcePoint"/>
                    </mxGeometry>
                </mxCell>
                <mxCell id="886" value="" style="shape=waypoint;size=6;pointerEvents=1;points=[];fillColor=#6a00ff;resizable=0;rotatable=0;perimeter=centerPerimeter;snapToPoint=1;strokeColor=#3700CC;rounded=1;" parent="1" vertex="1">
                    <mxGeometry x="1789.5" y="2225.63" width="20" height="20" as="geometry"/>
                </mxCell>
                <mxCell id="887" value="Orario Inizio" style="text;html=1;align=center;verticalAlign=middle;resizable=0;points=[];autosize=1;strokeColor=none;fillColor=none;" parent="1" vertex="1">
                    <mxGeometry x="1799.5" y="2220.63" width="90" height="30" as="geometry"/>
                </mxCell>
                <mxCell id="888" value="" style="edgeStyle=none;html=1;startArrow=none;startFill=0;endArrow=none;endFill=0;exitX=1;exitY=1;exitDx=0;exitDy=0;" parent="1" source="875" target="889" edge="1">
                    <mxGeometry relative="1" as="geometry">
                        <mxPoint x="1966.5" y="2060.63" as="sourcePoint"/>
                    </mxGeometry>
                </mxCell>
                <mxCell id="889" value="" style="shape=waypoint;size=6;pointerEvents=1;points=[];fillColor=#6a00ff;resizable=0;rotatable=0;perimeter=centerPerimeter;snapToPoint=1;strokeColor=#3700CC;rounded=1;" parent="1" vertex="1">
                    <mxGeometry x="1789.5" y="2255.63" width="20" height="20" as="geometry"/>
                </mxCell>
                <mxCell id="890" value="Orario Fine" style="text;html=1;align=center;verticalAlign=middle;resizable=0;points=[];autosize=1;strokeColor=none;fillColor=none;" parent="1" vertex="1">
                    <mxGeometry x="1799.5" y="2250.63" width="80" height="30" as="geometry"/>
                </mxCell>
                <mxCell id="891" value="" style="edgeStyle=none;html=1;endArrow=none;endFill=0;" parent="1" target="892" edge="1">
                    <mxGeometry relative="1" as="geometry">
                        <mxPoint x="1616.5" y="1998.75" as="sourcePoint"/>
                    </mxGeometry>
                </mxCell>
                <mxCell id="892" value="" style="shape=waypoint;sketch=0;size=6;pointerEvents=1;points=[];fillColor=#6a00ff;resizable=0;rotatable=0;perimeter=centerPerimeter;snapToPoint=1;strokeColor=#3700CC;rounded=1;" parent="1" vertex="1">
                    <mxGeometry x="1557.5" y="1988.75" width="20" height="20" as="geometry"/>
                </mxCell>
                <mxCell id="893" value="Giorno" style="text;html=1;align=center;verticalAlign=middle;resizable=0;points=[];autosize=1;strokeColor=none;fillColor=none;" parent="1" vertex="1">
                    <mxGeometry x="1799.5" y="2190.63" width="60" height="30" as="geometry"/>
                </mxCell>
                <mxCell id="894" style="edgeStyle=orthogonalEdgeStyle;html=1;entryX=0;entryY=0.5;entryDx=0;entryDy=0;endArrow=none;endFill=0;" parent="1" source="895" target="899" edge="1">
                    <mxGeometry relative="1" as="geometry"/>
                </mxCell>
                <mxCell id="895" value="Pagamento" style="rounded=1;whiteSpace=wrap;html=1;fillColor=#6a00ff;strokeColor=#3700CC;" parent="1" vertex="1">
                    <mxGeometry x="1279" y="1856.25" width="120" height="60" as="geometry"/>
                </mxCell>
                <mxCell id="896" value="0" style="text;html=1;align=center;verticalAlign=middle;resizable=0;points=[];autosize=1;strokeColor=none;fillColor=none;" parent="1" vertex="1">
                    <mxGeometry x="1399" y="1856.25" width="30" height="30" as="geometry"/>
                </mxCell>
                <mxCell id="897" value="1" style="text;html=1;align=center;verticalAlign=middle;resizable=0;points=[];autosize=1;strokeColor=none;fillColor=none;" parent="1" vertex="1">
                    <mxGeometry x="1680" y="1938.75" width="30" height="30" as="geometry"/>
                </mxCell>
                <mxCell id="898" style="edgeStyle=orthogonalEdgeStyle;html=1;entryX=0.25;entryY=0;entryDx=0;entryDy=0;endArrow=classic;endFill=1;" parent="1" source="899" edge="1">
                    <mxGeometry relative="1" as="geometry">
                        <mxPoint x="1680" y="1968.75" as="targetPoint"/>
                    </mxGeometry>
                </mxCell>
                <mxCell id="899" value="di" style="shape=rhombus;double=1;perimeter=rhombusPerimeter;whiteSpace=wrap;html=1;align=center;rounded=1;fillColor=#0050ef;fontColor=#ffffff;strokeColor=#001DBC;" parent="1" vertex="1">
                    <mxGeometry x="1474" y="1856.25" width="120" height="60" as="geometry"/>
                </mxCell>
                <mxCell id="900" value="Contesto della prenotazione 2" style="text;strokeColor=none;fillColor=none;html=1;fontSize=24;fontStyle=1;verticalAlign=middle;align=center;" parent="1" vertex="1">
                    <mxGeometry x="1279" y="1750" width="415.5" height="40" as="geometry"/>
                </mxCell>
                <mxCell id="907" value="&lt;span style=&quot;text-align: center;&quot;&gt;possibilità di prenotare solo una settimana prima&lt;br&gt;&lt;/span&gt;&lt;span style=&quot;text-align: center;&quot;&gt;se cliente non paga entro 3 giorni la prenotazione viene annullata&lt;/span&gt;&lt;span style=&quot;text-align: center;&quot;&gt;&lt;br&gt;&lt;/span&gt;" style="text;html=1;whiteSpace=wrap;strokeColor=none;fillColor=none;overflow=fill;fontSize=12;" vertex="1" parent="1">
                    <mxGeometry x="1187" y="2073.38" width="380" height="72" as="geometry"/>
                </mxCell>
            </root>
        </mxGraphModel>
    </diagram>
</mxfile>